G75*
%MOIN*%
%OFA0B0*%
%FSLAX25Y25*%
%IPPOS*%
%LPD*%
%AMOC8*
5,1,8,0,0,1.08239X$1,22.5*
%
%ADD10C,0.00000*%
%ADD11R,0.25000X0.10000*%
%ADD12R,0.08700X0.02400*%
%ADD13R,0.03150X0.03937*%
%ADD14R,0.05906X0.02756*%
%ADD15R,0.19685X0.11811*%
%ADD16R,0.11811X0.19685*%
%ADD17R,0.07000X0.07000*%
%ADD18R,0.04331X0.03937*%
%ADD19C,0.05000*%
%ADD20C,0.01000*%
%ADD21C,0.02700*%
%ADD22C,0.01600*%
D10*
X0024901Y0013065D02*
X0022581Y0016812D01*
X0021081Y0021589D01*
X0020720Y0026220D01*
X0020294Y0026525D01*
X0019868Y0026830D01*
X0019442Y0027135D01*
X0019016Y0027440D01*
X0015942Y0033553D01*
X0013438Y0039476D01*
X0011861Y0045673D01*
X0011568Y0052611D01*
X0012237Y0058549D01*
X0013530Y0064412D01*
X0015349Y0070147D01*
X0017599Y0075703D01*
X0019728Y0080210D01*
X0022171Y0084588D01*
X0025051Y0088638D01*
X0028492Y0092160D01*
X0029227Y0092729D01*
X0030066Y0093288D01*
X0030991Y0093834D01*
X0031983Y0094365D01*
X0031738Y0095213D01*
X0031474Y0096345D01*
X0031306Y0097550D01*
X0031348Y0098617D01*
X0031810Y0100217D01*
X0032550Y0101743D01*
X0033551Y0103095D01*
X0034795Y0104171D01*
X0036975Y0105119D01*
X0039387Y0105485D01*
X0041898Y0105576D01*
X0044372Y0105703D01*
X0045073Y0105761D01*
X0045870Y0105807D01*
X0046682Y0105842D01*
X0047430Y0105867D01*
X0052749Y0112749D01*
X0055475Y0115999D01*
X0058100Y0118978D01*
X0060514Y0121582D01*
X0062606Y0123704D01*
X0064268Y0125238D01*
X0065389Y0126078D01*
X0067571Y0126663D01*
X0071730Y0127238D01*
X0077412Y0127786D01*
X0084161Y0128286D01*
X0091521Y0128721D01*
X0099036Y0129072D01*
X0106252Y0129320D01*
X0112711Y0129447D01*
X0113066Y0129450D01*
X0113424Y0129454D01*
X0113788Y0129456D01*
X0114155Y0129458D01*
X0114527Y0129459D01*
X0114902Y0129460D01*
X0115282Y0129461D01*
X0115665Y0129461D01*
X0115665Y0129461D01*
X0115665Y0129461D01*
X0121806Y0129414D01*
X0128424Y0129279D01*
X0135155Y0129065D01*
X0141632Y0128783D01*
X0147491Y0128441D01*
X0152366Y0128050D01*
X0155892Y0127619D01*
X0157705Y0127157D01*
X0159380Y0125971D01*
X0161420Y0124156D01*
X0163728Y0121838D01*
X0166209Y0119145D01*
X0168767Y0116204D01*
X0171305Y0113139D01*
X0175939Y0107149D01*
X0176703Y0107124D01*
X0177559Y0107089D01*
X0178410Y0107041D01*
X0179159Y0106980D01*
X0181633Y0106853D01*
X0184144Y0106761D01*
X0186556Y0106396D01*
X0188736Y0105448D01*
X0189975Y0104371D01*
X0190967Y0103017D01*
X0191705Y0101490D01*
X0192183Y0099893D01*
X0192270Y0098549D01*
X0192110Y0097022D01*
X0191832Y0095580D01*
X0191564Y0094491D01*
X0192908Y0093558D01*
X0194109Y0092589D01*
X0195128Y0091603D01*
X0195925Y0090615D01*
X0199546Y0084554D01*
X0202811Y0077589D01*
X0205552Y0070139D01*
X0207602Y0062629D01*
X0208096Y0059747D01*
X0208326Y0056820D01*
X0208319Y0053881D01*
X0208103Y0050958D01*
X0207010Y0045148D01*
X0205298Y0038820D01*
X0203721Y0033732D01*
X0203028Y0031645D01*
X0202588Y0026276D01*
X0201887Y0021148D01*
X0200389Y0016523D01*
X0197555Y0012665D01*
X0193937Y0011933D01*
X0187197Y0011640D01*
X0180382Y0011765D01*
X0176542Y0012287D01*
X0174806Y0014049D01*
X0173476Y0016594D01*
X0172624Y0018883D01*
X0172324Y0019877D01*
X0156821Y0019099D01*
X0141317Y0018321D01*
X0133566Y0017932D01*
X0125814Y0017543D01*
X0118062Y0017154D01*
X0110311Y0016765D01*
X0102948Y0017022D01*
X0095585Y0017278D01*
X0088222Y0017534D01*
X0080859Y0017790D01*
X0073496Y0018047D01*
X0066133Y0018303D01*
X0051407Y0018816D01*
X0050336Y0017159D01*
X0049234Y0015497D01*
X0047716Y0013744D01*
X0045398Y0011816D01*
X0039886Y0011660D01*
X0035667Y0011551D01*
X0031894Y0011502D01*
X0027722Y0011527D01*
X0024901Y0013065D01*
X0192728Y0050594D02*
X0192730Y0050678D01*
X0192736Y0050761D01*
X0192746Y0050844D01*
X0192760Y0050927D01*
X0192777Y0051009D01*
X0192799Y0051090D01*
X0192824Y0051169D01*
X0192853Y0051248D01*
X0192886Y0051325D01*
X0192922Y0051400D01*
X0192962Y0051474D01*
X0193005Y0051546D01*
X0193052Y0051615D01*
X0193102Y0051682D01*
X0193155Y0051747D01*
X0193211Y0051809D01*
X0193269Y0051869D01*
X0193331Y0051926D01*
X0193395Y0051979D01*
X0193462Y0052030D01*
X0193531Y0052077D01*
X0193602Y0052122D01*
X0193675Y0052162D01*
X0193750Y0052199D01*
X0193827Y0052233D01*
X0193905Y0052263D01*
X0193984Y0052289D01*
X0194065Y0052312D01*
X0194147Y0052330D01*
X0194229Y0052345D01*
X0194312Y0052356D01*
X0194395Y0052363D01*
X0194479Y0052366D01*
X0194563Y0052365D01*
X0194646Y0052360D01*
X0194730Y0052351D01*
X0194812Y0052338D01*
X0194894Y0052322D01*
X0194975Y0052301D01*
X0195056Y0052277D01*
X0195134Y0052249D01*
X0195212Y0052217D01*
X0195288Y0052181D01*
X0195362Y0052142D01*
X0195434Y0052100D01*
X0195504Y0052054D01*
X0195572Y0052005D01*
X0195637Y0051953D01*
X0195700Y0051898D01*
X0195760Y0051840D01*
X0195818Y0051779D01*
X0195872Y0051715D01*
X0195924Y0051649D01*
X0195972Y0051581D01*
X0196017Y0051510D01*
X0196058Y0051437D01*
X0196097Y0051363D01*
X0196131Y0051287D01*
X0196162Y0051209D01*
X0196189Y0051130D01*
X0196213Y0051049D01*
X0196232Y0050968D01*
X0196248Y0050886D01*
X0196260Y0050803D01*
X0196268Y0050719D01*
X0196272Y0050636D01*
X0196272Y0050552D01*
X0196268Y0050469D01*
X0196260Y0050385D01*
X0196248Y0050302D01*
X0196232Y0050220D01*
X0196213Y0050139D01*
X0196189Y0050058D01*
X0196162Y0049979D01*
X0196131Y0049901D01*
X0196097Y0049825D01*
X0196058Y0049751D01*
X0196017Y0049678D01*
X0195972Y0049607D01*
X0195924Y0049539D01*
X0195872Y0049473D01*
X0195818Y0049409D01*
X0195760Y0049348D01*
X0195700Y0049290D01*
X0195637Y0049235D01*
X0195572Y0049183D01*
X0195504Y0049134D01*
X0195434Y0049088D01*
X0195362Y0049046D01*
X0195288Y0049007D01*
X0195212Y0048971D01*
X0195134Y0048939D01*
X0195056Y0048911D01*
X0194975Y0048887D01*
X0194894Y0048866D01*
X0194812Y0048850D01*
X0194730Y0048837D01*
X0194646Y0048828D01*
X0194563Y0048823D01*
X0194479Y0048822D01*
X0194395Y0048825D01*
X0194312Y0048832D01*
X0194229Y0048843D01*
X0194147Y0048858D01*
X0194065Y0048876D01*
X0193984Y0048899D01*
X0193905Y0048925D01*
X0193827Y0048955D01*
X0193750Y0048989D01*
X0193675Y0049026D01*
X0193602Y0049066D01*
X0193531Y0049111D01*
X0193462Y0049158D01*
X0193395Y0049209D01*
X0193331Y0049262D01*
X0193269Y0049319D01*
X0193211Y0049379D01*
X0193155Y0049441D01*
X0193102Y0049506D01*
X0193052Y0049573D01*
X0193005Y0049642D01*
X0192962Y0049714D01*
X0192922Y0049788D01*
X0192886Y0049863D01*
X0192853Y0049940D01*
X0192824Y0050019D01*
X0192799Y0050098D01*
X0192777Y0050179D01*
X0192760Y0050261D01*
X0192746Y0050344D01*
X0192736Y0050427D01*
X0192730Y0050510D01*
X0192728Y0050594D01*
X0192728Y0062406D02*
X0192730Y0062490D01*
X0192736Y0062573D01*
X0192746Y0062656D01*
X0192760Y0062739D01*
X0192777Y0062821D01*
X0192799Y0062902D01*
X0192824Y0062981D01*
X0192853Y0063060D01*
X0192886Y0063137D01*
X0192922Y0063212D01*
X0192962Y0063286D01*
X0193005Y0063358D01*
X0193052Y0063427D01*
X0193102Y0063494D01*
X0193155Y0063559D01*
X0193211Y0063621D01*
X0193269Y0063681D01*
X0193331Y0063738D01*
X0193395Y0063791D01*
X0193462Y0063842D01*
X0193531Y0063889D01*
X0193602Y0063934D01*
X0193675Y0063974D01*
X0193750Y0064011D01*
X0193827Y0064045D01*
X0193905Y0064075D01*
X0193984Y0064101D01*
X0194065Y0064124D01*
X0194147Y0064142D01*
X0194229Y0064157D01*
X0194312Y0064168D01*
X0194395Y0064175D01*
X0194479Y0064178D01*
X0194563Y0064177D01*
X0194646Y0064172D01*
X0194730Y0064163D01*
X0194812Y0064150D01*
X0194894Y0064134D01*
X0194975Y0064113D01*
X0195056Y0064089D01*
X0195134Y0064061D01*
X0195212Y0064029D01*
X0195288Y0063993D01*
X0195362Y0063954D01*
X0195434Y0063912D01*
X0195504Y0063866D01*
X0195572Y0063817D01*
X0195637Y0063765D01*
X0195700Y0063710D01*
X0195760Y0063652D01*
X0195818Y0063591D01*
X0195872Y0063527D01*
X0195924Y0063461D01*
X0195972Y0063393D01*
X0196017Y0063322D01*
X0196058Y0063249D01*
X0196097Y0063175D01*
X0196131Y0063099D01*
X0196162Y0063021D01*
X0196189Y0062942D01*
X0196213Y0062861D01*
X0196232Y0062780D01*
X0196248Y0062698D01*
X0196260Y0062615D01*
X0196268Y0062531D01*
X0196272Y0062448D01*
X0196272Y0062364D01*
X0196268Y0062281D01*
X0196260Y0062197D01*
X0196248Y0062114D01*
X0196232Y0062032D01*
X0196213Y0061951D01*
X0196189Y0061870D01*
X0196162Y0061791D01*
X0196131Y0061713D01*
X0196097Y0061637D01*
X0196058Y0061563D01*
X0196017Y0061490D01*
X0195972Y0061419D01*
X0195924Y0061351D01*
X0195872Y0061285D01*
X0195818Y0061221D01*
X0195760Y0061160D01*
X0195700Y0061102D01*
X0195637Y0061047D01*
X0195572Y0060995D01*
X0195504Y0060946D01*
X0195434Y0060900D01*
X0195362Y0060858D01*
X0195288Y0060819D01*
X0195212Y0060783D01*
X0195134Y0060751D01*
X0195056Y0060723D01*
X0194975Y0060699D01*
X0194894Y0060678D01*
X0194812Y0060662D01*
X0194730Y0060649D01*
X0194646Y0060640D01*
X0194563Y0060635D01*
X0194479Y0060634D01*
X0194395Y0060637D01*
X0194312Y0060644D01*
X0194229Y0060655D01*
X0194147Y0060670D01*
X0194065Y0060688D01*
X0193984Y0060711D01*
X0193905Y0060737D01*
X0193827Y0060767D01*
X0193750Y0060801D01*
X0193675Y0060838D01*
X0193602Y0060878D01*
X0193531Y0060923D01*
X0193462Y0060970D01*
X0193395Y0061021D01*
X0193331Y0061074D01*
X0193269Y0061131D01*
X0193211Y0061191D01*
X0193155Y0061253D01*
X0193102Y0061318D01*
X0193052Y0061385D01*
X0193005Y0061454D01*
X0192962Y0061526D01*
X0192922Y0061600D01*
X0192886Y0061675D01*
X0192853Y0061752D01*
X0192824Y0061831D01*
X0192799Y0061910D01*
X0192777Y0061991D01*
X0192760Y0062073D01*
X0192746Y0062156D01*
X0192736Y0062239D01*
X0192730Y0062322D01*
X0192728Y0062406D01*
D11*
X0129000Y0116500D03*
X0094000Y0116500D03*
D12*
X0054800Y0064000D03*
X0054800Y0059000D03*
X0054800Y0054000D03*
X0054800Y0049000D03*
X0028300Y0049000D03*
X0028300Y0054000D03*
X0028300Y0059000D03*
X0028300Y0064000D03*
D13*
X0190169Y0072839D03*
X0198831Y0072839D03*
X0198831Y0040161D03*
X0190169Y0040161D03*
D14*
X0185642Y0047642D03*
X0185642Y0053547D03*
X0185642Y0065358D03*
D15*
X0079193Y0062500D03*
D16*
X0165807Y0062500D03*
D17*
X0051500Y0036500D03*
X0041500Y0036500D03*
X0031500Y0036500D03*
X0031500Y0026500D03*
X0041500Y0026500D03*
X0051500Y0026500D03*
D18*
X0051500Y0073154D03*
X0051500Y0079846D03*
X0044500Y0079846D03*
X0037500Y0079846D03*
X0030500Y0079846D03*
X0030500Y0073154D03*
X0037500Y0073154D03*
X0044500Y0073154D03*
D19*
X0064500Y0031500D03*
D20*
X0064500Y0049500D01*
X0060000Y0054000D01*
X0054800Y0054000D01*
X0049500Y0056500D02*
X0061500Y0056500D01*
X0063500Y0058500D01*
X0063500Y0061500D01*
X0061000Y0064000D01*
X0054800Y0064000D01*
X0054300Y0059500D02*
X0048500Y0059500D01*
X0047500Y0060500D01*
X0047500Y0066500D01*
X0051500Y0070500D01*
X0051500Y0073154D01*
X0051500Y0079846D02*
X0057154Y0079846D01*
X0065500Y0071500D01*
X0065500Y0053500D01*
X0070500Y0048500D01*
X0111500Y0048500D01*
X0119500Y0056500D01*
X0119500Y0070500D01*
X0122950Y0070412D02*
X0157802Y0070412D01*
X0157802Y0069414D02*
X0122784Y0069414D01*
X0122950Y0069814D02*
X0122950Y0071186D01*
X0122425Y0072454D01*
X0121454Y0073425D01*
X0120186Y0073950D01*
X0118814Y0073950D01*
X0117546Y0073425D01*
X0116575Y0072454D01*
X0116050Y0071186D01*
X0116050Y0069814D01*
X0116575Y0068546D01*
X0116900Y0068221D01*
X0116900Y0057577D01*
X0110423Y0051100D01*
X0099777Y0051100D01*
X0101727Y0053050D01*
X0102186Y0053050D01*
X0103454Y0053575D01*
X0104425Y0054546D01*
X0104950Y0055814D01*
X0104950Y0057186D01*
X0104425Y0058454D01*
X0103454Y0059425D01*
X0102186Y0059950D01*
X0100814Y0059950D01*
X0099546Y0059425D01*
X0098575Y0058454D01*
X0098050Y0057186D01*
X0098050Y0056727D01*
X0095423Y0054100D01*
X0071577Y0054100D01*
X0070582Y0055094D01*
X0078693Y0055094D01*
X0078693Y0062000D01*
X0079693Y0062000D01*
X0079693Y0063000D01*
X0090535Y0063000D01*
X0090535Y0067165D01*
X0090814Y0067050D01*
X0092186Y0067050D01*
X0093454Y0067575D01*
X0094425Y0068546D01*
X0094950Y0069814D01*
X0094950Y0071186D01*
X0094425Y0072454D01*
X0094100Y0072779D01*
X0094100Y0077017D01*
X0093704Y0077973D01*
X0092973Y0078704D01*
X0080777Y0090900D01*
X0089423Y0090900D01*
X0102900Y0077423D01*
X0102900Y0072779D01*
X0102575Y0072454D01*
X0102050Y0071186D01*
X0102050Y0069814D01*
X0102575Y0068546D01*
X0103546Y0067575D01*
X0104814Y0067050D01*
X0106186Y0067050D01*
X0107454Y0067575D01*
X0108425Y0068546D01*
X0108950Y0069814D01*
X0108950Y0071186D01*
X0108425Y0072454D01*
X0108100Y0072779D01*
X0108100Y0079017D01*
X0107704Y0079973D01*
X0106973Y0080704D01*
X0106973Y0080704D01*
X0093077Y0094600D01*
X0161299Y0094600D01*
X0173600Y0082299D01*
X0173600Y0073425D01*
X0172582Y0074443D01*
X0159032Y0074443D01*
X0157802Y0073212D01*
X0157802Y0051788D01*
X0159032Y0050557D01*
X0172582Y0050557D01*
X0173115Y0051090D01*
X0173117Y0051089D01*
X0174183Y0050647D01*
X0181241Y0050647D01*
X0181294Y0050594D01*
X0180589Y0049890D01*
X0180589Y0045394D01*
X0181819Y0044164D01*
X0187659Y0044164D01*
X0186494Y0043000D01*
X0186494Y0037323D01*
X0187725Y0036093D01*
X0192614Y0036093D01*
X0193844Y0037323D01*
X0193844Y0043000D01*
X0192614Y0044230D01*
X0189530Y0044230D01*
X0190694Y0045394D01*
X0190694Y0049665D01*
X0191218Y0048401D01*
X0192307Y0047312D01*
X0193730Y0046723D01*
X0195270Y0046723D01*
X0196693Y0047312D01*
X0197782Y0048401D01*
X0198372Y0049824D01*
X0198372Y0051365D01*
X0197782Y0052788D01*
X0196693Y0053877D01*
X0195270Y0054466D01*
X0193730Y0054466D01*
X0192307Y0053877D01*
X0191218Y0052788D01*
X0190694Y0051524D01*
X0190694Y0055795D01*
X0189464Y0057025D01*
X0181819Y0057025D01*
X0181241Y0056447D01*
X0175961Y0056447D01*
X0173813Y0058596D01*
X0173813Y0068410D01*
X0174041Y0067857D01*
X0178041Y0063857D01*
X0178857Y0063041D01*
X0179923Y0062600D01*
X0181099Y0062600D01*
X0181819Y0061880D01*
X0189464Y0061880D01*
X0190628Y0063044D01*
X0190628Y0061635D01*
X0191218Y0060212D01*
X0192307Y0059123D01*
X0193730Y0058534D01*
X0195270Y0058534D01*
X0196693Y0059123D01*
X0197782Y0060212D01*
X0198372Y0061635D01*
X0198372Y0063176D01*
X0197782Y0064599D01*
X0196693Y0065688D01*
X0195270Y0066277D01*
X0193730Y0066277D01*
X0192307Y0065688D01*
X0191218Y0064599D01*
X0190694Y0063335D01*
X0190694Y0067606D01*
X0189530Y0068770D01*
X0192614Y0068770D01*
X0193844Y0070000D01*
X0193844Y0075677D01*
X0192614Y0076907D01*
X0187725Y0076907D01*
X0186494Y0075677D01*
X0186494Y0070000D01*
X0187659Y0068836D01*
X0181819Y0068836D01*
X0181542Y0068559D01*
X0179400Y0070701D01*
X0179400Y0084077D01*
X0178958Y0085143D01*
X0178143Y0085958D01*
X0164143Y0099958D01*
X0163077Y0100400D01*
X0038923Y0100400D01*
X0037857Y0099958D01*
X0037041Y0099143D01*
X0033746Y0095847D01*
X0033541Y0096729D01*
X0033412Y0097655D01*
X0033436Y0098279D01*
X0033778Y0099461D01*
X0034355Y0100651D01*
X0035101Y0101659D01*
X0035927Y0102373D01*
X0037561Y0103084D01*
X0039583Y0103390D01*
X0041123Y0103446D01*
X0041137Y0103434D01*
X0041990Y0103478D01*
X0042843Y0103509D01*
X0042856Y0103523D01*
X0043649Y0103563D01*
X0043678Y0103539D01*
X0044513Y0103608D01*
X0045349Y0103651D01*
X0045371Y0103675D01*
X0045975Y0103710D01*
X0046744Y0103743D01*
X0046834Y0103674D01*
X0047599Y0103772D01*
X0048370Y0103798D01*
X0048447Y0103880D01*
X0048559Y0103895D01*
X0049031Y0104505D01*
X0049558Y0105069D01*
X0049554Y0105182D01*
X0054385Y0111432D01*
X0057068Y0114630D01*
X0059659Y0117570D01*
X0062032Y0120131D01*
X0064067Y0122195D01*
X0065613Y0123622D01*
X0066324Y0124154D01*
X0067988Y0124601D01*
X0071975Y0125152D01*
X0077591Y0125693D01*
X0084300Y0126191D01*
X0091632Y0126624D01*
X0099121Y0126974D01*
X0106308Y0127221D01*
X0112742Y0127347D01*
X0113117Y0127351D01*
X0113441Y0127354D01*
X0113780Y0127356D01*
X0114163Y0127358D01*
X0114537Y0127359D01*
X0114902Y0127360D01*
X0115171Y0127361D01*
X0115504Y0127194D01*
X0115605Y0127228D01*
X0115705Y0127188D01*
X0116095Y0127358D01*
X0121776Y0127314D01*
X0128369Y0127180D01*
X0135075Y0126967D01*
X0141525Y0126686D01*
X0147345Y0126346D01*
X0152154Y0125960D01*
X0155504Y0125551D01*
X0156809Y0125218D01*
X0158071Y0124325D01*
X0159977Y0122629D01*
X0162211Y0120386D01*
X0164645Y0117745D01*
X0167166Y0114845D01*
X0169665Y0111827D01*
X0173816Y0106461D01*
X0173812Y0106347D01*
X0174339Y0105785D01*
X0174810Y0105176D01*
X0174924Y0105162D01*
X0175002Y0105078D01*
X0175772Y0105053D01*
X0176536Y0104956D01*
X0176626Y0105026D01*
X0177457Y0104991D01*
X0178160Y0104952D01*
X0178182Y0104928D01*
X0179019Y0104885D01*
X0179855Y0104816D01*
X0179883Y0104840D01*
X0180675Y0104799D01*
X0180688Y0104786D01*
X0181541Y0104755D01*
X0182394Y0104711D01*
X0182408Y0104723D01*
X0183948Y0104667D01*
X0185970Y0104361D01*
X0187602Y0103651D01*
X0188420Y0102940D01*
X0189160Y0101930D01*
X0189741Y0100727D01*
X0190103Y0099520D01*
X0190163Y0098592D01*
X0190031Y0097331D01*
X0189780Y0096030D01*
X0189618Y0095370D01*
X0189343Y0094974D01*
X0189418Y0094559D01*
X0189317Y0094148D01*
X0189566Y0093736D01*
X0189652Y0093262D01*
X0189999Y0093021D01*
X0190217Y0092660D01*
X0190685Y0092545D01*
X0191648Y0091876D01*
X0192717Y0091014D01*
X0193575Y0090184D01*
X0194198Y0089411D01*
X0197689Y0083568D01*
X0200811Y0076907D01*
X0196386Y0076907D01*
X0195156Y0075677D01*
X0195156Y0070000D01*
X0196386Y0068770D01*
X0201275Y0068770D01*
X0202505Y0070000D01*
X0202505Y0072338D01*
X0203550Y0069499D01*
X0205549Y0062175D01*
X0206010Y0059487D01*
X0206225Y0056740D01*
X0206219Y0053961D01*
X0206017Y0051231D01*
X0204961Y0045617D01*
X0203281Y0039405D01*
X0201721Y0034374D01*
X0201220Y0032865D01*
X0201006Y0032683D01*
X0200955Y0032067D01*
X0200760Y0031481D01*
X0200887Y0031229D01*
X0200499Y0026504D01*
X0199832Y0021618D01*
X0198496Y0017493D01*
X0196343Y0014562D01*
X0193682Y0014024D01*
X0187170Y0013741D01*
X0180543Y0013862D01*
X0177535Y0014271D01*
X0176522Y0015299D01*
X0175398Y0017450D01*
X0174616Y0019554D01*
X0174409Y0020238D01*
X0174378Y0020851D01*
X0174166Y0021043D01*
X0174083Y0021317D01*
X0173543Y0021607D01*
X0173088Y0022018D01*
X0172802Y0022004D01*
X0172550Y0022139D01*
X0171963Y0021962D01*
X0157584Y0021240D01*
X0157584Y0021240D01*
X0140769Y0020396D01*
X0134329Y0020073D01*
X0134329Y0020073D01*
X0133729Y0020043D01*
X0132592Y0019986D01*
X0125300Y0019620D01*
X0118826Y0019295D01*
X0118187Y0019263D01*
X0117088Y0019208D01*
X0110294Y0018867D01*
X0103890Y0019090D01*
X0103890Y0019090D01*
X0103696Y0019097D01*
X0102151Y0019151D01*
X0102151Y0019151D01*
X0095196Y0019393D01*
X0089164Y0019603D01*
X0088973Y0019609D01*
X0087426Y0019663D01*
X0080481Y0019905D01*
X0074438Y0020115D01*
X0065337Y0020432D01*
X0052061Y0020894D01*
X0051818Y0021051D01*
X0051221Y0020923D01*
X0050611Y0020945D01*
X0050400Y0020747D01*
X0050117Y0020687D01*
X0049785Y0020174D01*
X0049339Y0019758D01*
X0049329Y0019469D01*
X0048579Y0018310D01*
X0047558Y0016769D01*
X0046241Y0015248D01*
X0044613Y0013894D01*
X0039831Y0013759D01*
X0035626Y0013650D01*
X0031887Y0013602D01*
X0028264Y0013623D01*
X0026394Y0014643D01*
X0024506Y0017693D01*
X0023156Y0021990D01*
X0022873Y0025620D01*
X0022933Y0025705D01*
X0022806Y0026474D01*
X0022746Y0027251D01*
X0022666Y0027318D01*
X0022649Y0027421D01*
X0022224Y0027726D01*
X0022016Y0027875D01*
X0021423Y0028381D01*
X0021320Y0028373D01*
X0020700Y0028817D01*
X0020660Y0028846D01*
X0019250Y0031648D01*
X0024054Y0026844D01*
X0024062Y0026827D01*
X0024462Y0026437D01*
X0024857Y0026041D01*
X0024874Y0026034D01*
X0024887Y0026022D01*
X0025406Y0025814D01*
X0025900Y0025610D01*
X0025900Y0022130D01*
X0027130Y0020900D01*
X0035870Y0020900D01*
X0036500Y0021530D01*
X0037130Y0020900D01*
X0045870Y0020900D01*
X0046924Y0021954D01*
X0047079Y0021800D01*
X0047421Y0021602D01*
X0047803Y0021500D01*
X0051000Y0021500D01*
X0051000Y0026000D01*
X0052000Y0026000D01*
X0052000Y0027000D01*
X0056500Y0027000D01*
X0056500Y0030197D01*
X0056398Y0030579D01*
X0056200Y0030921D01*
X0056046Y0031076D01*
X0057100Y0032130D01*
X0057100Y0040870D01*
X0055870Y0042100D01*
X0054100Y0042100D01*
X0054100Y0044017D01*
X0053704Y0044973D01*
X0052377Y0046300D01*
X0054700Y0046300D01*
X0054700Y0048900D01*
X0054900Y0048900D01*
X0054900Y0049100D01*
X0060650Y0049100D01*
X0060650Y0049673D01*
X0061900Y0048423D01*
X0061900Y0035402D01*
X0061894Y0035400D01*
X0060600Y0034106D01*
X0059900Y0032415D01*
X0059900Y0030585D01*
X0060600Y0028894D01*
X0061894Y0027600D01*
X0063585Y0026900D01*
X0065415Y0026900D01*
X0067106Y0027600D01*
X0068400Y0028894D01*
X0069100Y0030585D01*
X0069100Y0032415D01*
X0068400Y0034106D01*
X0067106Y0035400D01*
X0067100Y0035402D01*
X0067100Y0048223D01*
X0068296Y0047027D01*
X0069027Y0046296D01*
X0069983Y0045900D01*
X0112017Y0045900D01*
X0112973Y0046296D01*
X0120973Y0054296D01*
X0121704Y0055027D01*
X0122100Y0055983D01*
X0122100Y0068221D01*
X0122425Y0068546D01*
X0122950Y0069814D01*
X0122294Y0068415D02*
X0157802Y0068415D01*
X0157802Y0067417D02*
X0122100Y0067417D01*
X0122100Y0066418D02*
X0157802Y0066418D01*
X0157802Y0065420D02*
X0122100Y0065420D01*
X0122100Y0064421D02*
X0157802Y0064421D01*
X0157802Y0063423D02*
X0122100Y0063423D01*
X0122100Y0062424D02*
X0157802Y0062424D01*
X0157802Y0061426D02*
X0122100Y0061426D01*
X0122100Y0060427D02*
X0157802Y0060427D01*
X0157802Y0059429D02*
X0122100Y0059429D01*
X0122100Y0058430D02*
X0157802Y0058430D01*
X0157802Y0057432D02*
X0122100Y0057432D01*
X0122100Y0056433D02*
X0157802Y0056433D01*
X0157802Y0055434D02*
X0121873Y0055434D01*
X0121113Y0054436D02*
X0157802Y0054436D01*
X0157802Y0053437D02*
X0120114Y0053437D01*
X0119116Y0052439D02*
X0157802Y0052439D01*
X0158149Y0051440D02*
X0118117Y0051440D01*
X0117119Y0050442D02*
X0181141Y0050442D01*
X0180589Y0049443D02*
X0116120Y0049443D01*
X0115122Y0048445D02*
X0180589Y0048445D01*
X0180589Y0047446D02*
X0114123Y0047446D01*
X0113125Y0046448D02*
X0180589Y0046448D01*
X0180589Y0045449D02*
X0067100Y0045449D01*
X0067100Y0044451D02*
X0181532Y0044451D01*
X0186494Y0042454D02*
X0067100Y0042454D01*
X0067100Y0043452D02*
X0186947Y0043452D01*
X0186494Y0041455D02*
X0067100Y0041455D01*
X0067100Y0040457D02*
X0186494Y0040457D01*
X0186494Y0039458D02*
X0067100Y0039458D01*
X0067100Y0038460D02*
X0186494Y0038460D01*
X0186494Y0037461D02*
X0067100Y0037461D01*
X0067100Y0036463D02*
X0187355Y0036463D01*
X0192984Y0036463D02*
X0196016Y0036463D01*
X0196386Y0036093D02*
X0195156Y0037323D01*
X0195156Y0043000D01*
X0196386Y0044230D01*
X0201275Y0044230D01*
X0202505Y0043000D01*
X0202505Y0037323D01*
X0201275Y0036093D01*
X0196386Y0036093D01*
X0195156Y0037461D02*
X0193844Y0037461D01*
X0193844Y0038460D02*
X0195156Y0038460D01*
X0195156Y0039458D02*
X0193844Y0039458D01*
X0193844Y0040457D02*
X0195156Y0040457D01*
X0195156Y0041455D02*
X0193844Y0041455D01*
X0193844Y0042454D02*
X0195156Y0042454D01*
X0195609Y0043452D02*
X0193391Y0043452D01*
X0190694Y0045449D02*
X0204916Y0045449D01*
X0205117Y0046448D02*
X0190694Y0046448D01*
X0190694Y0047446D02*
X0192173Y0047446D01*
X0191200Y0048445D02*
X0190694Y0048445D01*
X0190694Y0049443D02*
X0190786Y0049443D01*
X0190694Y0052439D02*
X0191073Y0052439D01*
X0190694Y0053437D02*
X0191868Y0053437D01*
X0190694Y0054436D02*
X0193657Y0054436D01*
X0195343Y0054436D02*
X0206220Y0054436D01*
X0206222Y0055434D02*
X0190694Y0055434D01*
X0190057Y0056433D02*
X0206225Y0056433D01*
X0206171Y0057432D02*
X0174977Y0057432D01*
X0173978Y0058430D02*
X0206093Y0058430D01*
X0206014Y0059429D02*
X0196998Y0059429D01*
X0197871Y0060427D02*
X0205849Y0060427D01*
X0205678Y0061426D02*
X0198285Y0061426D01*
X0198372Y0062424D02*
X0205481Y0062424D01*
X0205209Y0063423D02*
X0198269Y0063423D01*
X0197856Y0064421D02*
X0204936Y0064421D01*
X0204664Y0065420D02*
X0196961Y0065420D01*
X0192039Y0065420D02*
X0190694Y0065420D01*
X0190694Y0066418D02*
X0204391Y0066418D01*
X0204119Y0067417D02*
X0190694Y0067417D01*
X0189885Y0068415D02*
X0203846Y0068415D01*
X0203574Y0069414D02*
X0201919Y0069414D01*
X0202505Y0070412D02*
X0203214Y0070412D01*
X0202847Y0071411D02*
X0202505Y0071411D01*
X0195742Y0069414D02*
X0193258Y0069414D01*
X0193844Y0070412D02*
X0195156Y0070412D01*
X0195156Y0071411D02*
X0193844Y0071411D01*
X0193844Y0072409D02*
X0195156Y0072409D01*
X0195156Y0073408D02*
X0193844Y0073408D01*
X0193844Y0074406D02*
X0195156Y0074406D01*
X0195156Y0075405D02*
X0193844Y0075405D01*
X0193118Y0076403D02*
X0195882Y0076403D01*
X0200111Y0078400D02*
X0179400Y0078400D01*
X0179400Y0077402D02*
X0200579Y0077402D01*
X0199643Y0079399D02*
X0179400Y0079399D01*
X0179400Y0080397D02*
X0199175Y0080397D01*
X0198707Y0081396D02*
X0179400Y0081396D01*
X0179400Y0082394D02*
X0198239Y0082394D01*
X0197771Y0083393D02*
X0179400Y0083393D01*
X0179270Y0084391D02*
X0197197Y0084391D01*
X0196600Y0085390D02*
X0178711Y0085390D01*
X0177713Y0086388D02*
X0196004Y0086388D01*
X0195407Y0087387D02*
X0176714Y0087387D01*
X0175716Y0088385D02*
X0194811Y0088385D01*
X0194214Y0089384D02*
X0174717Y0089384D01*
X0173719Y0090382D02*
X0193369Y0090382D01*
X0192262Y0091381D02*
X0172720Y0091381D01*
X0171722Y0092379D02*
X0190923Y0092379D01*
X0189631Y0093378D02*
X0170723Y0093378D01*
X0169725Y0094376D02*
X0189373Y0094376D01*
X0189619Y0095375D02*
X0168726Y0095375D01*
X0167728Y0096373D02*
X0189846Y0096373D01*
X0190035Y0097372D02*
X0166729Y0097372D01*
X0165731Y0098370D02*
X0190140Y0098370D01*
X0190113Y0099369D02*
X0164732Y0099369D01*
X0163155Y0100368D02*
X0189849Y0100368D01*
X0189432Y0101366D02*
X0034884Y0101366D01*
X0034217Y0100368D02*
X0038845Y0100368D01*
X0037268Y0099369D02*
X0033751Y0099369D01*
X0033462Y0098370D02*
X0036269Y0098370D01*
X0035271Y0097372D02*
X0033451Y0097372D01*
X0033624Y0096373D02*
X0034272Y0096373D01*
X0040500Y0093500D02*
X0090500Y0093500D01*
X0105500Y0078500D01*
X0105500Y0070500D01*
X0102557Y0072409D02*
X0094443Y0072409D01*
X0094100Y0073408D02*
X0102900Y0073408D01*
X0102900Y0074406D02*
X0094100Y0074406D01*
X0094100Y0075405D02*
X0102900Y0075405D01*
X0102900Y0076403D02*
X0094100Y0076403D01*
X0093941Y0077402D02*
X0102900Y0077402D01*
X0101923Y0078400D02*
X0093277Y0078400D01*
X0092278Y0079399D02*
X0100924Y0079399D01*
X0099926Y0080397D02*
X0091280Y0080397D01*
X0090281Y0081396D02*
X0098927Y0081396D01*
X0097929Y0082394D02*
X0089283Y0082394D01*
X0088284Y0083393D02*
X0096930Y0083393D01*
X0095932Y0084391D02*
X0087286Y0084391D01*
X0086287Y0085390D02*
X0094933Y0085390D01*
X0093935Y0086388D02*
X0085289Y0086388D01*
X0084290Y0087387D02*
X0092936Y0087387D01*
X0091938Y0088385D02*
X0083292Y0088385D01*
X0082293Y0089384D02*
X0090939Y0089384D01*
X0089941Y0090382D02*
X0081295Y0090382D01*
X0078500Y0089500D02*
X0091500Y0076500D01*
X0091500Y0070500D01*
X0088050Y0070412D02*
X0070100Y0070412D01*
X0070100Y0069905D02*
X0070100Y0078017D01*
X0069704Y0078973D01*
X0068973Y0079704D01*
X0061777Y0086900D01*
X0077423Y0086900D01*
X0088900Y0075423D01*
X0088900Y0072779D01*
X0088575Y0072454D01*
X0088050Y0071186D01*
X0088050Y0069905D01*
X0079693Y0069905D01*
X0079693Y0063000D01*
X0078693Y0063000D01*
X0078693Y0069905D01*
X0070100Y0069905D01*
X0070100Y0071411D02*
X0088143Y0071411D01*
X0088557Y0072409D02*
X0070100Y0072409D01*
X0070100Y0073408D02*
X0088900Y0073408D01*
X0088900Y0074406D02*
X0070100Y0074406D01*
X0070100Y0075405D02*
X0088900Y0075405D01*
X0087920Y0076403D02*
X0070100Y0076403D01*
X0070100Y0077402D02*
X0086921Y0077402D01*
X0085923Y0078400D02*
X0069941Y0078400D01*
X0069278Y0079399D02*
X0084924Y0079399D01*
X0083926Y0080397D02*
X0068280Y0080397D01*
X0067281Y0081396D02*
X0082927Y0081396D01*
X0081929Y0082394D02*
X0066283Y0082394D01*
X0065284Y0083393D02*
X0080930Y0083393D01*
X0079932Y0084391D02*
X0064286Y0084391D01*
X0063287Y0085390D02*
X0078933Y0085390D01*
X0077935Y0086388D02*
X0062289Y0086388D01*
X0058500Y0086500D02*
X0067500Y0077500D01*
X0067500Y0054500D01*
X0070500Y0051500D01*
X0096500Y0051500D01*
X0101500Y0056500D01*
X0098152Y0057432D02*
X0090535Y0057432D01*
X0090535Y0058430D02*
X0098565Y0058430D01*
X0099555Y0059429D02*
X0090535Y0059429D01*
X0090535Y0060427D02*
X0116900Y0060427D01*
X0116900Y0059429D02*
X0103445Y0059429D01*
X0104435Y0058430D02*
X0116900Y0058430D01*
X0116755Y0057432D02*
X0104848Y0057432D01*
X0104950Y0056433D02*
X0115756Y0056433D01*
X0114758Y0055434D02*
X0104793Y0055434D01*
X0104315Y0054436D02*
X0113759Y0054436D01*
X0112761Y0053437D02*
X0103122Y0053437D01*
X0101116Y0052439D02*
X0111762Y0052439D01*
X0110764Y0051440D02*
X0100117Y0051440D01*
X0096758Y0055434D02*
X0089997Y0055434D01*
X0089956Y0055394D02*
X0090236Y0055673D01*
X0090433Y0056016D01*
X0090535Y0056397D01*
X0090535Y0062000D01*
X0079693Y0062000D01*
X0079693Y0055094D01*
X0089233Y0055094D01*
X0089614Y0055197D01*
X0089956Y0055394D01*
X0090535Y0056433D02*
X0097756Y0056433D01*
X0095759Y0054436D02*
X0071241Y0054436D01*
X0078693Y0055434D02*
X0079693Y0055434D01*
X0079693Y0056433D02*
X0078693Y0056433D01*
X0078693Y0057432D02*
X0079693Y0057432D01*
X0079693Y0058430D02*
X0078693Y0058430D01*
X0078693Y0059429D02*
X0079693Y0059429D01*
X0079693Y0060427D02*
X0078693Y0060427D01*
X0078693Y0061426D02*
X0079693Y0061426D01*
X0079693Y0062424D02*
X0116900Y0062424D01*
X0116900Y0061426D02*
X0090535Y0061426D01*
X0090535Y0063423D02*
X0116900Y0063423D01*
X0116900Y0064421D02*
X0090535Y0064421D01*
X0090535Y0065420D02*
X0116900Y0065420D01*
X0116900Y0066418D02*
X0090535Y0066418D01*
X0093071Y0067417D02*
X0103929Y0067417D01*
X0102706Y0068415D02*
X0094294Y0068415D01*
X0094784Y0069414D02*
X0102216Y0069414D01*
X0102050Y0070412D02*
X0094950Y0070412D01*
X0094857Y0071411D02*
X0102143Y0071411D01*
X0108100Y0073408D02*
X0117529Y0073408D01*
X0116557Y0072409D02*
X0108443Y0072409D01*
X0108857Y0071411D02*
X0116143Y0071411D01*
X0116050Y0070412D02*
X0108950Y0070412D01*
X0108784Y0069414D02*
X0116216Y0069414D01*
X0116706Y0068415D02*
X0108294Y0068415D01*
X0107071Y0067417D02*
X0116900Y0067417D01*
X0122857Y0071411D02*
X0157802Y0071411D01*
X0157802Y0072409D02*
X0122443Y0072409D01*
X0121471Y0073408D02*
X0157997Y0073408D01*
X0158995Y0074406D02*
X0108100Y0074406D01*
X0108100Y0075405D02*
X0173600Y0075405D01*
X0173600Y0076403D02*
X0108100Y0076403D01*
X0108100Y0077402D02*
X0173600Y0077402D01*
X0173600Y0078400D02*
X0108100Y0078400D01*
X0107942Y0079399D02*
X0173600Y0079399D01*
X0173600Y0080397D02*
X0107280Y0080397D01*
X0106281Y0081396D02*
X0173600Y0081396D01*
X0173504Y0082394D02*
X0105283Y0082394D01*
X0104284Y0083393D02*
X0172506Y0083393D01*
X0171507Y0084391D02*
X0103286Y0084391D01*
X0102287Y0085390D02*
X0170509Y0085390D01*
X0169510Y0086388D02*
X0101289Y0086388D01*
X0100290Y0087387D02*
X0168512Y0087387D01*
X0167513Y0088385D02*
X0099292Y0088385D01*
X0098293Y0089384D02*
X0166515Y0089384D01*
X0165516Y0090382D02*
X0097295Y0090382D01*
X0096296Y0091381D02*
X0164518Y0091381D01*
X0163519Y0092379D02*
X0095298Y0092379D01*
X0094299Y0093378D02*
X0162521Y0093378D01*
X0161522Y0094376D02*
X0093300Y0094376D01*
X0078500Y0089500D02*
X0044500Y0089500D01*
X0037500Y0082500D01*
X0037500Y0079846D01*
X0030500Y0079846D02*
X0030500Y0083500D01*
X0040500Y0093500D01*
X0048500Y0086500D02*
X0058500Y0086500D01*
X0048500Y0086500D02*
X0044500Y0082500D01*
X0044500Y0079846D01*
X0044500Y0073154D02*
X0044500Y0056500D01*
X0037000Y0049000D01*
X0043000Y0049000D01*
X0046500Y0045500D01*
X0046500Y0031500D01*
X0041500Y0026500D01*
X0046455Y0021485D02*
X0162468Y0021485D01*
X0173769Y0021485D02*
X0199789Y0021485D01*
X0199950Y0022484D02*
X0056415Y0022484D01*
X0056398Y0022421D02*
X0056500Y0022803D01*
X0056500Y0026000D01*
X0052000Y0026000D01*
X0052000Y0021500D01*
X0055197Y0021500D01*
X0055579Y0021602D01*
X0055921Y0021800D01*
X0056200Y0022079D01*
X0056398Y0022421D01*
X0056500Y0023482D02*
X0200087Y0023482D01*
X0200223Y0024481D02*
X0056500Y0024481D01*
X0056500Y0025479D02*
X0200359Y0025479D01*
X0200496Y0026478D02*
X0052000Y0026478D01*
X0052000Y0025479D02*
X0051000Y0025479D01*
X0051000Y0024481D02*
X0052000Y0024481D01*
X0052000Y0023482D02*
X0051000Y0023482D01*
X0051000Y0022484D02*
X0052000Y0022484D01*
X0049987Y0020487D02*
X0023628Y0020487D01*
X0023315Y0021485D02*
X0026545Y0021485D01*
X0025900Y0022484D02*
X0023118Y0022484D01*
X0023040Y0023482D02*
X0025900Y0023482D01*
X0025900Y0024481D02*
X0022962Y0024481D01*
X0022884Y0025479D02*
X0025900Y0025479D01*
X0024420Y0026478D02*
X0022806Y0026478D01*
X0022573Y0027476D02*
X0023423Y0027476D01*
X0022224Y0027726D02*
X0022224Y0027726D01*
X0022424Y0028475D02*
X0021178Y0028475D01*
X0021426Y0029473D02*
X0020344Y0029473D01*
X0020427Y0030472D02*
X0019842Y0030472D01*
X0019429Y0031470D02*
X0019340Y0031470D01*
X0019500Y0039500D02*
X0027500Y0031500D01*
X0036500Y0031500D01*
X0041500Y0036500D01*
X0051500Y0036500D02*
X0051500Y0043500D01*
X0047500Y0047500D01*
X0047500Y0054500D01*
X0049500Y0056500D01*
X0054300Y0059500D02*
X0054800Y0059000D01*
X0054900Y0048900D02*
X0060650Y0048900D01*
X0060650Y0047603D01*
X0060548Y0047221D01*
X0060350Y0046879D01*
X0060071Y0046600D01*
X0059729Y0046402D01*
X0059347Y0046300D01*
X0054900Y0046300D01*
X0054900Y0048900D01*
X0054900Y0048445D02*
X0054700Y0048445D01*
X0054700Y0047446D02*
X0054900Y0047446D01*
X0054900Y0046448D02*
X0054700Y0046448D01*
X0053228Y0045449D02*
X0061900Y0045449D01*
X0061900Y0044451D02*
X0053920Y0044451D01*
X0054100Y0043452D02*
X0061900Y0043452D01*
X0061900Y0042454D02*
X0054100Y0042454D01*
X0056514Y0041455D02*
X0061900Y0041455D01*
X0061900Y0040457D02*
X0057100Y0040457D01*
X0057100Y0039458D02*
X0061900Y0039458D01*
X0061900Y0038460D02*
X0057100Y0038460D01*
X0057100Y0037461D02*
X0061900Y0037461D01*
X0061900Y0036463D02*
X0057100Y0036463D01*
X0057100Y0035464D02*
X0061900Y0035464D01*
X0060960Y0034466D02*
X0057100Y0034466D01*
X0057100Y0033467D02*
X0060336Y0033467D01*
X0059922Y0032469D02*
X0057100Y0032469D01*
X0056440Y0031470D02*
X0059900Y0031470D01*
X0059947Y0030472D02*
X0056427Y0030472D01*
X0056500Y0029473D02*
X0060361Y0029473D01*
X0061020Y0028475D02*
X0056500Y0028475D01*
X0056500Y0027476D02*
X0062194Y0027476D01*
X0066806Y0027476D02*
X0200579Y0027476D01*
X0200661Y0028475D02*
X0067980Y0028475D01*
X0068639Y0029473D02*
X0200743Y0029473D01*
X0200824Y0030472D02*
X0069053Y0030472D01*
X0069100Y0031470D02*
X0200766Y0031470D01*
X0200988Y0032469D02*
X0069078Y0032469D01*
X0068664Y0033467D02*
X0201420Y0033467D01*
X0201749Y0034466D02*
X0068040Y0034466D01*
X0067100Y0035464D02*
X0202059Y0035464D01*
X0202369Y0036463D02*
X0201645Y0036463D01*
X0202505Y0037461D02*
X0202678Y0037461D01*
X0202505Y0038460D02*
X0202988Y0038460D01*
X0203296Y0039458D02*
X0202505Y0039458D01*
X0202505Y0040457D02*
X0203566Y0040457D01*
X0203836Y0041455D02*
X0202505Y0041455D01*
X0202505Y0042454D02*
X0204106Y0042454D01*
X0204376Y0043452D02*
X0202053Y0043452D01*
X0204646Y0044451D02*
X0189751Y0044451D01*
X0196827Y0047446D02*
X0205305Y0047446D01*
X0205493Y0048445D02*
X0197800Y0048445D01*
X0198214Y0049443D02*
X0205681Y0049443D01*
X0205869Y0050442D02*
X0198372Y0050442D01*
X0198340Y0051440D02*
X0206033Y0051440D01*
X0206106Y0052439D02*
X0197927Y0052439D01*
X0197132Y0053437D02*
X0206180Y0053437D01*
X0192002Y0059429D02*
X0173813Y0059429D01*
X0173813Y0060427D02*
X0191129Y0060427D01*
X0190715Y0061426D02*
X0173813Y0061426D01*
X0173813Y0062424D02*
X0181275Y0062424D01*
X0178476Y0063423D02*
X0173813Y0063423D01*
X0173813Y0064421D02*
X0177478Y0064421D01*
X0176479Y0065420D02*
X0173813Y0065420D01*
X0173813Y0066418D02*
X0175481Y0066418D01*
X0174482Y0067417D02*
X0173813Y0067417D01*
X0179689Y0070412D02*
X0186494Y0070412D01*
X0186494Y0071411D02*
X0179400Y0071411D01*
X0179400Y0072409D02*
X0186494Y0072409D01*
X0186494Y0073408D02*
X0179400Y0073408D01*
X0179400Y0074406D02*
X0186494Y0074406D01*
X0186494Y0075405D02*
X0179400Y0075405D01*
X0179400Y0076403D02*
X0187221Y0076403D01*
X0187081Y0069414D02*
X0180688Y0069414D01*
X0173600Y0074406D02*
X0172619Y0074406D01*
X0190694Y0064421D02*
X0191144Y0064421D01*
X0190731Y0063423D02*
X0190694Y0063423D01*
X0190628Y0062424D02*
X0190008Y0062424D01*
X0188841Y0102365D02*
X0035916Y0102365D01*
X0039403Y0103363D02*
X0187933Y0103363D01*
X0185967Y0104362D02*
X0048920Y0104362D01*
X0049692Y0105360D02*
X0174668Y0105360D01*
X0173812Y0106359D02*
X0050464Y0106359D01*
X0051235Y0107357D02*
X0173123Y0107357D01*
X0172350Y0108356D02*
X0052007Y0108356D01*
X0052779Y0109354D02*
X0171578Y0109354D01*
X0170805Y0110353D02*
X0143322Y0110353D01*
X0143600Y0110630D02*
X0142370Y0109400D01*
X0115630Y0109400D01*
X0114400Y0110630D01*
X0114400Y0122370D01*
X0115630Y0123600D01*
X0142370Y0123600D01*
X0143600Y0122370D01*
X0143600Y0110630D01*
X0143600Y0111351D02*
X0170033Y0111351D01*
X0169232Y0112350D02*
X0143600Y0112350D01*
X0143600Y0113348D02*
X0168405Y0113348D01*
X0167578Y0114347D02*
X0143600Y0114347D01*
X0143600Y0115345D02*
X0166730Y0115345D01*
X0165862Y0116344D02*
X0143600Y0116344D01*
X0143600Y0117342D02*
X0164994Y0117342D01*
X0164095Y0118341D02*
X0143600Y0118341D01*
X0143600Y0119339D02*
X0163175Y0119339D01*
X0162256Y0120338D02*
X0143600Y0120338D01*
X0143600Y0121336D02*
X0161264Y0121336D01*
X0160270Y0122335D02*
X0143600Y0122335D01*
X0142637Y0123333D02*
X0159185Y0123333D01*
X0158061Y0124332D02*
X0066986Y0124332D01*
X0065300Y0123333D02*
X0080363Y0123333D01*
X0080630Y0123600D02*
X0079400Y0122370D01*
X0079400Y0110630D01*
X0080630Y0109400D01*
X0107370Y0109400D01*
X0108600Y0110630D01*
X0108600Y0122370D01*
X0107370Y0123600D01*
X0080630Y0123600D01*
X0079400Y0122335D02*
X0064218Y0122335D01*
X0063220Y0121336D02*
X0079400Y0121336D01*
X0079400Y0120338D02*
X0062235Y0120338D01*
X0061298Y0119339D02*
X0079400Y0119339D01*
X0079400Y0118341D02*
X0060372Y0118341D01*
X0059457Y0117342D02*
X0079400Y0117342D01*
X0079400Y0116344D02*
X0058578Y0116344D01*
X0057698Y0115345D02*
X0079400Y0115345D01*
X0079400Y0114347D02*
X0056831Y0114347D01*
X0055993Y0113348D02*
X0079400Y0113348D01*
X0079400Y0112350D02*
X0055155Y0112350D01*
X0054322Y0111351D02*
X0079400Y0111351D01*
X0079678Y0110353D02*
X0053551Y0110353D01*
X0073823Y0125330D02*
X0156370Y0125330D01*
X0147563Y0126329D02*
X0086636Y0126329D01*
X0107637Y0123333D02*
X0115363Y0123333D01*
X0114400Y0122335D02*
X0108600Y0122335D01*
X0108600Y0121336D02*
X0114400Y0121336D01*
X0114400Y0120338D02*
X0108600Y0120338D01*
X0108600Y0119339D02*
X0114400Y0119339D01*
X0114400Y0118341D02*
X0108600Y0118341D01*
X0108600Y0117342D02*
X0114400Y0117342D01*
X0114400Y0116344D02*
X0108600Y0116344D01*
X0108600Y0115345D02*
X0114400Y0115345D01*
X0114400Y0114347D02*
X0108600Y0114347D01*
X0108600Y0113348D02*
X0114400Y0113348D01*
X0114400Y0112350D02*
X0108600Y0112350D01*
X0108600Y0111351D02*
X0114400Y0111351D01*
X0114678Y0110353D02*
X0108322Y0110353D01*
X0111723Y0127327D02*
X0115238Y0127327D01*
X0116024Y0127327D02*
X0120094Y0127327D01*
X0037500Y0073154D02*
X0037500Y0056500D01*
X0035000Y0054000D01*
X0028300Y0054000D01*
X0023000Y0054000D01*
X0021500Y0052500D01*
X0021500Y0041500D01*
X0024500Y0038500D01*
X0030500Y0038500D01*
X0031500Y0036500D01*
X0019500Y0039500D02*
X0019500Y0056500D01*
X0022000Y0059000D01*
X0028300Y0059000D01*
X0034000Y0059000D01*
X0035500Y0060500D01*
X0035500Y0066500D01*
X0033500Y0068500D01*
X0031500Y0068500D01*
X0030500Y0069500D01*
X0030500Y0073154D01*
X0028300Y0064700D02*
X0028300Y0064000D01*
X0027800Y0064500D01*
X0028300Y0049000D02*
X0032500Y0049000D01*
X0037000Y0049000D01*
X0059808Y0046448D02*
X0061900Y0046448D01*
X0061900Y0047446D02*
X0060608Y0047446D01*
X0060650Y0048445D02*
X0061878Y0048445D01*
X0060880Y0049443D02*
X0060650Y0049443D01*
X0067100Y0047446D02*
X0067877Y0047446D01*
X0067100Y0046448D02*
X0068875Y0046448D01*
X0078693Y0063423D02*
X0079693Y0063423D01*
X0079693Y0064421D02*
X0078693Y0064421D01*
X0078693Y0065420D02*
X0079693Y0065420D01*
X0079693Y0066418D02*
X0078693Y0066418D01*
X0078693Y0067417D02*
X0079693Y0067417D01*
X0079693Y0068415D02*
X0078693Y0068415D01*
X0078693Y0069414D02*
X0079693Y0069414D01*
X0036545Y0021485D02*
X0036455Y0021485D01*
X0045336Y0014496D02*
X0026664Y0014496D01*
X0025867Y0015494D02*
X0046454Y0015494D01*
X0047318Y0016493D02*
X0025249Y0016493D01*
X0024630Y0017491D02*
X0048036Y0017491D01*
X0048695Y0018490D02*
X0024255Y0018490D01*
X0023942Y0019488D02*
X0049329Y0019488D01*
X0063768Y0020487D02*
X0142569Y0020487D01*
X0132592Y0019986D02*
X0132592Y0019986D01*
X0122669Y0019488D02*
X0092456Y0019488D01*
X0089164Y0019603D02*
X0089164Y0019603D01*
X0087426Y0019663D02*
X0087426Y0019663D01*
X0074438Y0020115D02*
X0074438Y0020115D01*
X0117088Y0019208D02*
X0117088Y0019208D01*
X0118826Y0019295D02*
X0118826Y0019295D01*
X0174396Y0020487D02*
X0199466Y0020487D01*
X0199142Y0019488D02*
X0174640Y0019488D01*
X0175011Y0018490D02*
X0198819Y0018490D01*
X0198494Y0017491D02*
X0175383Y0017491D01*
X0175899Y0016493D02*
X0197761Y0016493D01*
X0197027Y0015494D02*
X0176421Y0015494D01*
X0177314Y0014496D02*
X0196014Y0014496D01*
D21*
X0119500Y0070500D03*
X0105500Y0070500D03*
X0091500Y0070500D03*
X0101500Y0056500D03*
D22*
X0162500Y0097500D02*
X0039500Y0097500D01*
X0024500Y0082500D01*
X0024500Y0068500D01*
X0028300Y0064700D01*
X0027800Y0064500D02*
X0023500Y0064500D01*
X0016500Y0057500D01*
X0016500Y0038500D01*
X0026500Y0028500D01*
X0031500Y0026500D01*
X0162500Y0097500D02*
X0176500Y0083500D01*
X0176500Y0069500D01*
X0180500Y0065500D01*
X0185500Y0065500D01*
X0185642Y0065358D01*
X0185642Y0053547D02*
X0174760Y0053547D01*
X0165807Y0062500D01*
M02*
