<?xml version="1.0" encoding="UTF-8" standalone="no"?>
<!-- Created with Inkscape (http://www.inkscape.org/) -->

<svg
   width="7.4850001mm"
   height="7.302mm"
   viewBox="0 0 7.4850001 7.3019996"
   version="1.1"
   id="svg1"
   inkscape:version="1.3.2 (091e20e, 2023-11-25)"
   sodipodi:docname="I2C ready.svg"
   xmlns:inkscape="http://www.inkscape.org/namespaces/inkscape"
   xmlns:sodipodi="http://sodipodi.sourceforge.net/DTD/sodipodi-0.dtd"
   xmlns="http://www.w3.org/2000/svg"
   xmlns:svg="http://www.w3.org/2000/svg">
  <sodipodi:namedview
     id="namedview1"
     pagecolor="#ffffff"
     bordercolor="#666666"
     borderopacity="1.0"
     inkscape:showpageshadow="2"
     inkscape:pageopacity="0.0"
     inkscape:pagecheckerboard="0"
     inkscape:deskcolor="#d1d1d1"
     inkscape:document-units="mm"
     showguides="true"
     inkscape:zoom="3.7915294"
     inkscape:cx="111.69635"
     inkscape:cy="-41.144347"
     inkscape:window-width="2560"
     inkscape:window-height="955"
     inkscape:window-x="1440"
     inkscape:window-y="25"
     inkscape:window-maximized="0"
     inkscape:current-layer="layer1">
    <sodipodi:guide
       position="4.7986728,1.155055"
       orientation="0,1"
       id="guide2"
       inkscape:locked="false" />
    <sodipodi:guide
       position="4.8393446,-2.5368551"
       orientation="0,1"
       id="guide3"
       inkscape:locked="false" />
    <sodipodi:guide
       position="0.84534928,1.155065"
       orientation="-0.99144486,0.13052619"
       id="guide4"
       inkscape:locked="false"
       inkscape:label=""
       inkscape:color="rgb(0,134,229)" />
  </sodipodi:namedview>
  <defs
     id="defs1" />
  <g
     inkscape:label="Layer 1"
     inkscape:groupmode="layer"
     id="layer1"
     transform="translate(-2.1971407,-8.0890092)">
    <path
       id="rect2"
       style="fill:#000000;fill-opacity:1;stroke:none;stroke-width:0.1;stroke-linecap:round;stroke-linejoin:round;paint-order:markers fill stroke"
       d="M 3.5268681,8.5890388 3.0374923,12.274086 h 0.7322551 l 0.488859,-3.6850472 z m 1.3611573,0 -0.4893759,3.6850472 H 5.1309046 L 5.6202804,8.5890388 Z m 2.5920898,0 c -0.4434019,0 -0.8089624,0.1453478 -1.0960571,0.4356324 -0.330159,0.3333488 -0.4950602,0.8080274 -0.4950602,1.4236858 0,0.569406 0.1453476,1.017652 0.4356323,1.344621 0.2902846,0.325375 0.6885919,0.488342 1.1957926,0.488342 0.4099075,0 0.7465874,-0.120894 1.0097575,-0.361735 0.2615754,-0.240841 0.4245435,-0.553538 0.4883423,-0.937927 H 8.2888514 c -0.049444,0.181827 -0.1121049,0.318367 -0.1870687,0.409277 -0.1355726,0.169071 -0.3322764,0.253732 -0.5906616,0.253732 -0.2520055,0 -0.4599694,-0.09837 -0.6242513,-0.294556 -0.1626869,-0.197777 -0.2444296,-0.494317 -0.2444296,-0.889868 0,-0.395554 0.077315,-0.7009034 0.2320272,-0.9162234 0.1547123,-0.2169163 0.3661147,-0.3255618 0.6340698,-0.3255618 0.2631703,0 0.4618517,0.076326 0.5958293,0.2294433 0.074964,0.086127 0.1366357,0.2138555 0.1844849,0.3829225 H 9.0257573 C 9.0145925,9.6107176 8.9328499,9.3914935 8.7813278,9.1729825 8.5069927,8.7838097 8.0734443,8.5890388 7.4801152,8.5890388 Z M 2.9868494,12.691114 2.6969446,14.89098 h 5.7355673 c 0.415498,0 0.749825,-0.334325 0.749825,-0.749825 v -0.700216 c 0,-0.415496 -0.334327,-0.749825 -0.749825,-0.749825 z m 4.3263509,0.180868 H 7.5953536 L 7.2904627,14.309103 H 7.020195 l 0.031006,-0.147277 c -0.053385,0.06315 -0.1085897,0.109332 -0.1658813,0.137976 -0.056641,0.02865 -0.1224,0.04289 -0.1979208,0.04289 -0.1243488,0 -0.218868,-0.05012 -0.2826701,-0.150378 -0.063151,-0.100912 -0.077644,-0.230538 -0.044442,-0.38809 0.039063,-0.181641 0.1110558,-0.324231 0.2165243,-0.428398 0.1061197,-0.104166 0.2289958,-0.15658 0.3689697,-0.15658 0.064453,0 0.119027,0.01438 0.1632975,0.04237 0.04362,0.02865 0.075802,0.06769 0.096635,0.117822 z M 4.748499,13.216664 c 0.088542,0 0.1651245,0.0164 0.2289266,0.04961 0.064453,0.0332 0.1120282,0.08548 0.1426269,0.157096 0.028646,0.06315 0.039966,0.136811 0.034107,0.220142 -0.00261,0.04883 -0.014309,0.119042 -0.03514,0.21084 H 4.3903813 c -0.01888,0.106771 -0.00133,0.181307 0.05271,0.224276 0.032552,0.02669 0.075671,0.04031 0.1297078,0.04031 0.057291,0 0.1074094,-0.01654 0.1503784,-0.04909 0.022787,-0.01758 0.045561,-0.04162 0.067696,-0.07286 h 0.2842203 c -0.020833,0.06315 -0.067778,0.127135 -0.1400431,0.192236 -0.1132811,0.103516 -0.251933,0.155029 -0.4159953,0.155029 -0.1354165,0 -0.2454428,-0.0435 -0.3307291,-0.130741 -0.084635,-0.08724 -0.1062623,-0.229199 -0.064596,-0.425814 0.039063,-0.184244 0.1155114,-0.325439 0.2294434,-0.423747 0.1145832,-0.09831 0.2462363,-0.147277 0.3953247,-0.147277 z m -0.6201172,0.0026 h 0.013953 c 0.00325,6.51e-4 0.0105,0.0014 0.022221,0.0021 l -0.060461,0.285253 c -0.016927,-0.0019 -0.032321,-0.003 -0.045992,-0.0036 -0.013672,-6.51e-4 -0.02461,-10e-4 -0.033073,-10e-4 -0.111979,0 -0.195044,0.03612 -0.2490804,0.109037 -0.029948,0.04101 -0.054118,0.104363 -0.072347,0.189652 L 3.5961146,14.309103 H 3.3160283 l 0.225826,-1.064017 h 0.2656169 l -0.039274,0.185518 c 0.057943,-0.07096 0.1055176,-0.119686 0.1426269,-0.145727 0.061849,-0.04362 0.1342242,-0.06563 0.2175578,-0.06563 z m 1.7316773,0 c 0.1165363,0 0.2153769,0.02354 0.2961059,0.06976 0.080729,0.04623 0.1074423,0.13323 0.080099,0.261482 l -0.1049032,0.488343 c -0.00716,0.03385 -0.014791,0.07481 -0.023254,0.12299 -0.00586,0.03646 -0.00586,0.06139 0,0.07441 0.00651,0.01302 0.017833,0.02357 0.034107,0.03204 l -0.00775,0.04082 H 5.831637 c -0.00391,-0.02149 -0.0053,-0.04158 -0.00465,-0.06046 6.511e-4,-0.01888 0.00243,-0.03999 0.00568,-0.06408 -0.047526,0.04167 -0.09904,0.07716 -0.1550293,0.106454 -0.067708,0.03451 -0.1394531,0.05168 -0.2149739,0.05168 -0.096354,0 -0.1702596,-0.02748 -0.2216919,-0.08216 -0.050781,-0.05534 -0.06541,-0.133702 -0.043925,-0.234611 0.027995,-0.13086 0.098592,-0.225111 0.2118734,-0.283704 0.061849,-0.0319 0.1482216,-0.05506 0.2588989,-0.06873 l 0.096635,-0.01188 c 0.053385,-0.0065 0.092183,-0.01455 0.1162719,-0.02429 0.042969,-0.01693 0.068152,-0.04326 0.075964,-0.07906 0.00911,-0.04362 3.376e-4,-0.07364 -0.026355,-0.08992 -0.026693,-0.01693 -0.069564,-0.02532 -0.1281576,-0.02532 -0.065755,0 -0.1158733,0.01654 -0.1503784,0.04909 -0.024089,0.02409 -0.043803,0.05665 -0.059428,0.09767 H 5.3236577 c 0.026042,-0.0931 0.068531,-0.169547 0.127124,-0.229443 0.09375,-0.09375 0.2302411,-0.141077 0.4092774,-0.141077 z m 1.7998901,0.02584 H 7.969491 l 0.065112,0.784947 0.3870565,-0.784965 h 0.2955892 l -0.587561,1.046447 c -0.1132812,0.201824 -0.1955812,0.326995 -0.2470134,0.375171 -0.050781,0.04883 -0.1379193,0.07338 -0.260966,0.07338 -0.024739,0 -0.044454,-3.82e-4 -0.059428,-10e-4 -0.014974,0 -0.037366,-0.0012 -0.066663,-0.0031 l 0.047026,-0.222726 0.03514,0.0021 c 0.026693,0.0013 0.052641,6.83e-4 0.078031,-0.0026 0.025391,-0.0033 0.048165,-0.01103 0.067696,-0.02274 0.01888,-0.01107 0.038977,-0.03409 0.060461,-0.06925 0.021485,-0.03516 0.031275,-0.05679 0.029972,-0.0646 z m -2.9600261,0.201021 c -0.064453,0 -0.1190269,0.02009 -0.1632975,0.06046 -0.04362,0.04037 -0.076815,0.09532 -0.1002523,0.164331 h 0.4325318 c 0.011068,-0.07357 -3.5e-6,-0.129671 -0.032556,-0.167431 -0.031901,-0.03841 -0.077181,-0.05736 -0.136426,-0.05736 z m 2.2567098,0.01654 c -0.08138,0 -0.147522,0.03066 -0.1989542,0.0925 -0.050781,0.0612 -0.085889,0.137783 -0.1054199,0.228927 -0.020833,0.09831 -0.018289,0.176917 0.00775,0.236161 0.026042,0.05859 0.078321,0.08785 0.1570964,0.08785 0.078776,0 0.1450521,-0.02926 0.1984375,-0.08785 0.054037,-0.05859 0.09054,-0.134277 0.1100708,-0.227376 0.027344,-0.130208 0.014629,-0.22358 -0.038757,-0.27957 -0.033203,-0.03385 -0.076839,-0.05064 -0.1302247,-0.05064 z m -1.0505818,0.329179 c -0.019531,0.01107 -0.03938,0.02023 -0.058911,0.02739 -0.019531,0.0065 -0.045479,0.01277 -0.078031,0.0186 l -0.064596,0.01137 c -0.061198,0.01042 -0.105713,0.02327 -0.1343587,0.03824 -0.048177,0.02539 -0.077816,0.06496 -0.088883,0.118339 -0.010417,0.04753 -0.00495,0.08187 0.016536,0.103353 0.022135,0.02083 0.052156,0.03101 0.089917,0.03101 0.059896,0 0.1187909,-0.01756 0.1767334,-0.05271 0.057943,-0.03515 0.097754,-0.09914 0.1198893,-0.192237 z" />
  </g>
</svg>
