<?xml version="1.0" encoding="UTF-8" standalone="no"?>
<!-- Created with Inkscape (http://www.inkscape.org/) -->

<svg
   version="1.1"
   id="svg1"
   width="22mm"
   height="62mm"
   viewBox="0 0 83.149606 234.33071"
   sodipodi:docname="solo_export_stop.svg"
   inkscape:version="1.3.2 (091e20e, 2023-11-25)"
   xml:space="preserve"
   xmlns:inkscape="http://www.inkscape.org/namespaces/inkscape"
   xmlns:sodipodi="http://sodipodi.sourceforge.net/DTD/sodipodi-0.dtd"
   xmlns="http://www.w3.org/2000/svg"
   xmlns:svg="http://www.w3.org/2000/svg"><defs
     id="defs1" /><sodipodi:namedview
     id="namedview1"
     pagecolor="#ffffff"
     bordercolor="#666666"
     borderopacity="1.0"
     inkscape:showpageshadow="2"
     inkscape:pageopacity="0.0"
     inkscape:pagecheckerboard="0"
     inkscape:deskcolor="#d1d1d1"
     inkscape:zoom="1.7065672"
     inkscape:cx="74.711385"
     inkscape:cy="99.029209"
     inkscape:window-width="1440"
     inkscape:window-height="775"
     inkscape:window-x="2356"
     inkscape:window-y="38"
     inkscape:window-maximized="0"
     inkscape:current-layer="g1"
     inkscape:document-units="mm"
     showguides="true" /><g
     inkscape:groupmode="layer"
     inkscape:label="Image"
     id="g1"
     transform="translate(-304.37454,-625.24127)"><path
       id="rect3"
       style="fill:#808000;stroke-width:0.755906;stroke-linecap:round;stroke-linejoin:round;paint-order:markers fill stroke"
       d="M 392.55814 639.49713 L 392.55814 642.83111 L 394.23196 644.50494 L 394.23196 641.17096 L 392.55814 639.49713 z M 394.98782 641.92682 L 394.98782 645.2608 L 396.60892 646.8819 L 396.60892 643.54791 L 394.98782 641.92682 z M 392.55814 643.89947 L 392.55814 646.6319 L 394.23196 648.30572 L 394.23196 645.5733 L 392.55814 643.89947 z M 397.36478 644.30377 L 397.36478 647.6358 L 398.98587 649.2569 L 398.98587 645.92486 L 397.36478 644.30377 z M 394.98782 646.32916 L 394.98782 649.06158 L 396.60892 650.68268 L 396.60892 647.95025 L 394.98782 646.32916 z M 399.74173 646.68072 L 399.74173 650.01275 L 401.41946 651.69049 L 401.41946 648.35846 L 399.74173 646.68072 z M 392.55814 647.70025 L 392.55814 650.6319 L 394.23196 652.30572 L 394.23196 649.37408 L 392.55814 647.70025 z M 397.36478 648.70611 L 397.36478 651.43854 L 398.98587 653.05963 L 398.98587 650.32721 L 397.36478 648.70611 z M 394.98782 650.12994 L 394.98782 653.06158 L 396.60892 654.68268 L 396.60892 651.75104 L 394.98782 650.12994 z M 399.74173 651.08307 L 399.74173 653.81549 L 401.41946 655.49322 L 401.41946 652.7608 L 399.74173 651.08307 z M 392.55814 651.70025 L 392.55814 654.45807 L 394.23196 656.1319 L 394.23196 653.37408 L 392.55814 651.70025 z M 397.36478 652.5069 L 397.36478 655.43854 L 398.98587 657.05963 L 398.98587 654.12799 L 397.36478 652.5069 z M 394.98782 654.12994 L 394.98782 656.88776 L 396.60892 658.50885 L 396.60892 655.75104 L 394.98782 654.12994 z M 399.74173 654.88385 L 399.74173 657.81549 L 401.41946 659.49322 L 401.41946 656.56158 L 399.74173 654.88385 z M 397.36478 656.5069 L 397.36478 659.26276 L 398.98587 660.88385 L 398.98587 658.12799 L 397.36478 656.5069 z M 399.74173 658.88385 L 399.74173 661.63971 L 401.41946 663.31744 L 401.41946 660.56158 L 399.74173 658.88385 z M 394.33939 674.03033 A 0.37795414 0.37795414 0 0 0 394.07181 674.14166 A 0.37795414 0.37795414 0 0 0 394.07181 674.67486 L 395.80423 676.40533 A 0.37795414 0.37795414 0 0 0 396.33743 676.40533 A 0.37795414 0.37795414 0 0 0 396.33743 675.87018 L 394.60696 674.14166 A 0.37795414 0.37795414 0 0 0 394.33939 674.03033 z M 392.68704 674.5108 A 0.37795414 0.37795414 0 0 0 392.31009 674.88971 L 392.31009 677.07526 A 0.37795414 0.37795414 0 0 0 392.68704 677.45416 A 0.37795414 0.37795414 0 0 0 393.06595 677.07526 L 393.06595 674.88971 A 0.37795414 0.37795414 0 0 0 392.68704 674.5108 z M 396.85696 677.50299 A 0.37795414 0.37795414 0 0 0 396.48001 677.87994 L 396.48001 680.06744 A 0.37795414 0.37795414 0 0 0 396.85696 680.4444 A 0.37795414 0.37795414 0 0 0 397.23587 680.06744 L 397.23587 677.87994 A 0.37795414 0.37795414 0 0 0 396.85696 677.50299 z M 398.62454 677.95416 A 0.37795414 0.37795414 0 0 0 398.35696 678.06549 A 0.37795414 0.37795414 0 0 0 398.35696 678.60065 L 400.08548 680.32916 A 0.37795414 0.37795414 0 0 0 400.62064 680.32916 A 0.37795414 0.37795414 0 0 0 400.62064 679.79791 L 398.89212 678.06549 A 0.37795414 0.37795414 0 0 0 398.62454 677.95416 z M 393.63235 678.22955 A 0.37795414 0.37795414 0 0 0 393.36282 678.34088 A 0.37795414 0.37795414 0 0 0 393.36282 678.87604 L 395.09524 680.60455 A 0.37795414 0.37795414 0 0 0 395.6304 680.60455 A 0.37795414 0.37795414 0 0 0 395.6304 680.0694 L 393.89798 678.34088 A 0.37795414 0.37795414 0 0 0 393.63235 678.22955 z M 394.28665 680.99127 A 0.37795414 0.37795414 0 0 0 394.02103 681.10065 A 0.37795414 0.37795414 0 0 0 394.02103 681.6358 L 395.69876 683.31354 A 0.37795414 0.37795414 0 0 0 396.23392 683.31354 A 0.37795414 0.37795414 0 0 0 396.23392 682.77643 L 394.55423 681.10065 A 0.37795414 0.37795414 0 0 0 394.28665 680.99127 z M 392.68704 681.10651 A 0.37795414 0.37795414 0 0 0 392.31009 681.48346 L 392.31009 683.67096 A 0.37795414 0.37795414 0 0 0 392.68704 684.04791 A 0.37795414 0.37795414 0 0 0 393.06595 683.67096 L 393.06595 681.48346 A 0.37795414 0.37795414 0 0 0 392.68704 681.10651 z M 401.25931 681.31744 A 0.37795414 0.37795414 0 0 0 400.88235 681.69635 L 400.88235 683.8858 A 0.37795414 0.37795414 0 0 0 401.25931 684.26276 A 0.37795414 0.37795414 0 0 0 401.63821 683.8858 L 401.63821 681.69635 A 0.37795414 0.37795414 0 0 0 401.25931 681.31744 z M 398.0347 681.60455 A 0.37795414 0.37795414 0 0 0 397.76517 681.71588 A 0.37795414 0.37795414 0 0 0 397.76517 682.24713 L 399.49759 683.97955 A 0.37795414 0.37795414 0 0 0 400.03275 683.97955 A 0.37795414 0.37795414 0 0 0 400.03275 683.4444 L 398.30032 681.71588 A 0.37795414 0.37795414 0 0 0 398.0347 681.60455 z M 396.85696 684.09674 A 0.37795414 0.37795414 0 0 0 396.48001 684.47565 L 396.48001 686.66119 A 0.37795414 0.37795414 0 0 0 396.85696 687.0401 A 0.37795414 0.37795414 0 0 0 397.23587 686.66119 L 397.23587 684.47565 A 0.37795414 0.37795414 0 0 0 396.85696 684.09674 z M 398.54642 684.74713 A 0.37795414 0.37795414 0 0 0 398.27689 684.85846 A 0.37795414 0.37795414 0 0 0 398.27689 685.39361 L 400.00931 687.12213 A 0.37795414 0.37795414 0 0 0 400.54446 687.12213 A 0.37795414 0.37795414 0 0 0 400.54446 686.58697 L 398.81204 684.85846 A 0.37795414 0.37795414 0 0 0 398.54642 684.74713 z M 393.7886 685.0069 A 0.37795414 0.37795414 0 0 0 393.52103 685.11627 A 0.37795414 0.37795414 0 0 0 393.52103 685.65143 L 395.25149 687.3819 A 0.37795414 0.37795414 0 0 0 395.78665 687.3819 A 0.37795414 0.37795414 0 0 0 395.78665 686.84674 L 394.05618 685.11627 A 0.37795414 0.37795414 0 0 0 393.7886 685.0069 z M 401.25931 687.91315 A 0.37795414 0.37795414 0 0 0 400.88235 688.2901 L 400.88235 690.47955 A 0.37795414 0.37795414 0 0 0 401.25931 690.85846 A 0.37795414 0.37795414 0 0 0 401.63821 690.47955 L 401.63821 688.2901 A 0.37795414 0.37795414 0 0 0 401.25931 687.91315 z M 398.0347 688.62994 A 0.37795414 0.37795414 0 0 0 397.76517 688.74322 A 0.37795414 0.37795414 0 0 0 397.76517 689.27838 L 399.49759 691.0069 A 0.37795414 0.37795414 0 0 0 400.03275 691.0069 A 0.37795414 0.37795414 0 0 0 400.03275 690.47369 L 398.30032 688.74322 A 0.37795414 0.37795414 0 0 0 398.0347 688.62994 z M 392.27884 702.49713 L 392.27884 705.89557 L 393.69876 707.31744 L 393.69876 703.91901 L 392.27884 702.49713 z M 400.27884 705.49713 L 400.27884 708.89557 L 401.69876 710.31744 L 401.69876 706.91901 L 400.27884 705.49713 z M 392.27884 712.49713 L 392.27884 715.89557 L 393.69876 717.31744 L 393.69876 713.91901 L 392.27884 712.49713 z M 400.27884 715.49713 L 400.27884 718.89557 L 401.69876 720.31744 L 401.69876 716.91901 L 400.27884 715.49713 z M 398.90384 841.55573 A 1.1397638 1.1397638 0 0 0 397.76517 842.6944 A 1.1397638 1.1397638 0 0 0 398.90384 843.83502 A 1.1397638 1.1397638 0 0 0 400.04446 842.6944 A 1.1397638 1.1397638 0 0 0 398.90384 841.55573 z " /></g></svg>
