<?xml version="1.0" encoding="UTF-8" standalone="no"?>
<!-- Created with Inkscape (http://www.inkscape.org/) -->

<svg
   version="1.1"
   id="svg1"
   width="22mm"
   height="62mm"
   viewBox="0 0 83.149606 234.33071"
   sodipodi:docname="solo_export_silkscreen.svg"
   inkscape:version="1.3.2 (091e20e, 2023-11-25)"
   xml:space="preserve"
   xmlns:inkscape="http://www.inkscape.org/namespaces/inkscape"
   xmlns:sodipodi="http://sodipodi.sourceforge.net/DTD/sodipodi-0.dtd"
   xmlns="http://www.w3.org/2000/svg"
   xmlns:svg="http://www.w3.org/2000/svg"><defs
     id="defs1" /><sodipodi:namedview
     id="namedview1"
     pagecolor="#ffffff"
     bordercolor="#666666"
     borderopacity="1.0"
     inkscape:showpageshadow="2"
     inkscape:pageopacity="0.0"
     inkscape:pagecheckerboard="0"
     inkscape:deskcolor="#d1d1d1"
     inkscape:zoom="3.1405936"
     inkscape:cx="140.10091"
     inkscape:cy="101.73236"
     inkscape:window-width="1280"
     inkscape:window-height="954"
     inkscape:window-x="2720"
     inkscape:window-y="25"
     inkscape:window-maximized="0"
     inkscape:current-layer="g1"
     inkscape:document-units="mm"
     showguides="true" /><g
     inkscape:groupmode="layer"
     inkscape:label="Image"
     id="g1"
     transform="translate(-304.37454,-625.24127)"><path
       style="color:#000000;fill:#ffffff;stroke-linecap:round;stroke-linejoin:round;-inkscape-stroke:none;paint-order:markers fill stroke"
       d="m 390.90039,807.76367 c -0.21319,0.0323 -0.41528,0.17556 -0.54883,0.36524 -0.13355,0.18967 -0.22636,0.42708 -0.30469,0.74218 a 0.37799079,0.37799079 0 0 0 -0.0117,0.0899 v 47.46093 l 0.002,-0.0215 c -0.0749,1.27353 0.37105,2.38659 1.27344,3.24414 l 10.53711,10.53711 c 0.38833,0.42119 0.96044,0.5694 1.42578,0.35547 0.46533,-0.21393 0.75516,-0.74813 0.74609,-1.41602 v -47.4414 a 0.37799079,0.37799079 0 0 0 -0.002,-0.0371 c -0.0334,-0.32375 -0.001,-0.71727 -0.15625,-1.1875 -0.15517,-0.47023 -0.49895,-0.97297 -1.19727,-1.54688 L 391.9043,808.14648 a 0.37799079,0.37799079 0 0 0 -0.0586,-0.0469 c -0.23774,-0.15824 -0.51892,-0.40055 -0.94531,-0.33594 z m 0.11328,0.74805 c -0.004,5.5e-4 0.17785,0.0681 0.39453,0.20703 l 10.74805,10.74805 a 0.37799079,0.37799079 0 0 0 0.0273,0.0254 c 0.62744,0.51566 0.85519,0.88662 0.95899,1.20117 0.10221,0.30975 0.0815,0.61051 0.12109,1.00976 v 47.42383 a 0.37799079,0.37799079 0 0 0 0,0.006 c 0.006,0.45939 -0.15871,0.65164 -0.30469,0.71875 -0.14597,0.0671 -0.33973,0.0515 -0.55468,-0.18164 a 0.37799079,0.37799079 0 0 0 -0.0117,-0.0117 l -10.55469,-10.55468 a 0.37799079,0.37799079 0 0 0 -0.008,-0.008 c -0.76265,-0.72475 -1.10265,-1.57063 -1.03906,-2.65234 a 0.37799079,0.37799079 0 0 0 0,-0.0215 v -47.39453 c 0.0624,-0.23757 0.13101,-0.39848 0.17773,-0.46484 0.0493,-0.07 0.0468,-0.0511 0.0449,-0.0508 z"
       id="path54" /><g
       id="path52"
       style="fill:#ffffff"><path
         style="color:#000000;fill:#ffffff;stroke-linecap:round;stroke-linejoin:round;-inkscape-stroke:none;paint-order:markers fill stroke"
         d="m 390.90039,692.76367 c -0.21319,0.0323 -0.41528,0.17556 -0.54883,0.36524 -0.13355,0.18967 -0.22636,0.42708 -0.30469,0.74218 a 0.37799079,0.37799079 0 0 0 -0.0117,0.0899 v 47.46093 l 0.002,-0.0215 c -0.0749,1.27353 0.37105,2.38659 1.27344,3.24414 l 10.53711,10.53711 c 0.38833,0.42119 0.96044,0.5694 1.42578,0.35547 0.46533,-0.21393 0.75516,-0.74813 0.74609,-1.41602 v -47.4414 a 0.37799079,0.37799079 0 0 0 -0.002,-0.0371 c -0.0334,-0.32375 -0.001,-0.71727 -0.15625,-1.1875 -0.15517,-0.47023 -0.49895,-0.97297 -1.19727,-1.54688 L 391.9043,693.14648 a 0.37799079,0.37799079 0 0 0 -0.0586,-0.0469 c -0.23774,-0.15824 -0.51892,-0.40055 -0.94531,-0.33594 z m 0.11328,0.74805 c -0.004,5.5e-4 0.17785,0.0681 0.39453,0.20703 l 10.74805,10.74805 a 0.37799079,0.37799079 0 0 0 0.0273,0.0254 c 0.62744,0.51566 0.85519,0.88662 0.95899,1.20117 0.10221,0.30975 0.0815,0.61051 0.12109,1.00976 v 47.42383 a 0.37799079,0.37799079 0 0 0 0,0.006 c 0.006,0.45939 -0.15871,0.65164 -0.30469,0.71875 -0.14597,0.0671 -0.33973,0.0515 -0.55468,-0.18164 a 0.37799079,0.37799079 0 0 0 -0.0117,-0.0117 l -10.55469,-10.55468 a 0.37799079,0.37799079 0 0 0 -0.008,-0.008 c -0.76265,-0.72475 -1.10265,-1.57063 -1.03906,-2.65234 a 0.37799079,0.37799079 0 0 0 0,-0.0215 v -47.39453 c 0.0624,-0.23757 0.13101,-0.39848 0.17773,-0.46484 0.0493,-0.07 0.0468,-0.0511 0.0449,-0.0508 z"
         id="path3" /></g><path
       style="color:#000000;fill:#ffffff;stroke-linecap:round;stroke-linejoin:round;-inkscape-stroke:none;paint-order:markers fill stroke"
       d="m 390.90039,635.26367 c -0.21319,0.0323 -0.41528,0.17556 -0.54883,0.36524 -0.13355,0.18967 -0.22636,0.42708 -0.30469,0.74218 a 0.37799079,0.37799079 0 0 0 -0.0117,0.0899 v 47.46093 l 0.002,-0.0215 c -0.0749,1.27353 0.37105,2.38659 1.27344,3.24414 l 10.53711,10.53711 c 0.38833,0.42119 0.96044,0.5694 1.42578,0.35547 0.46533,-0.21393 0.75516,-0.74813 0.74609,-1.41602 v -47.4414 a 0.37799079,0.37799079 0 0 0 -0.002,-0.0371 c -0.0334,-0.32375 -0.001,-0.71727 -0.15625,-1.1875 -0.15517,-0.47023 -0.49895,-0.97297 -1.19727,-1.54688 L 391.9043,635.64648 a 0.37799079,0.37799079 0 0 0 -0.0586,-0.0469 c -0.23774,-0.15824 -0.51892,-0.40055 -0.94531,-0.33594 z m 0.11328,0.74805 c -0.004,5.5e-4 0.17785,0.0681 0.39453,0.20703 l 10.74805,10.74805 a 0.37799079,0.37799079 0 0 0 0.0273,0.0254 c 0.62744,0.51566 0.85519,0.88662 0.95899,1.20117 0.10221,0.30975 0.0815,0.61051 0.12109,1.00976 v 47.42383 a 0.37799079,0.37799079 0 0 0 0,0.006 c 0.006,0.45939 -0.15871,0.65164 -0.30469,0.71875 -0.14597,0.0671 -0.33973,0.0515 -0.55468,-0.18164 a 0.37799079,0.37799079 0 0 0 -0.0117,-0.0117 l -10.55469,-10.55468 a 0.37799079,0.37799079 0 0 0 -0.008,-0.008 c -0.76265,-0.72475 -1.10265,-1.57063 -1.03906,-2.65234 a 0.37799079,0.37799079 0 0 0 0,-0.0215 v -47.39453 c 0.0624,-0.23757 0.13101,-0.39848 0.17773,-0.46484 0.0493,-0.07 0.0468,-0.0511 0.0449,-0.0508 z"
       id="path20" /><path
       id="path8"
       style="fill:#ffffff;stroke:none;stroke-width:0.755908;stroke-linecap:round;stroke-linejoin:round;paint-order:markers fill stroke"
       d="M 393.48782 658.49713 L 393.48782 670.31744 L 400.48782 677.31744 L 400.48782 665.49713 L 393.48782 658.49713 z M 396.90384 663.80572 A 1.8897638 1.8897638 0 0 1 398.79446 665.6944 A 1.8897638 1.8897638 0 0 1 396.90384 667.58502 A 1.8897638 1.8897638 0 0 1 395.01517 665.6944 A 1.8897638 1.8897638 0 0 1 396.90384 663.80572 z M 395.87845 667.79205 L 398.58353 670.49713 L 397.8765 671.20416 L 395.17142 668.49908 L 395.87845 667.79205 z M 395.98782 670.43658 L 398.73782 673.18658 L 398.03079 673.89361 L 395.28079 671.14361 L 395.98782 670.43658 z " /><g
       id="g58"
       transform="translate(0.49999999,0.50000001)"
       style="fill:#ffffff"><path
         id="path43"
         style="fill:#ffffff;stroke:none;stroke-width:0.755908;stroke-linecap:round;stroke-linejoin:round;paint-order:markers fill stroke"
         d="M 393.98782 829.49713 L 393.98782 841.31745 L 400.98782 848.31745 L 400.98782 836.49713 L 393.98782 829.49713 z M 398.40384 835.80573 A 1.8897638 1.8897638 0 0 1 400.29446 837.6944 A 1.8897638 1.8897638 0 0 1 398.40384 839.58502 A 1.8897638 1.8897638 0 0 1 396.51517 837.6944 A 1.8897638 1.8897638 0 0 1 398.40384 835.80573 z M 398.40384 841.05573 A 1.1397638 1.1397638 0 0 1 399.54446 842.1944 A 1.1397638 1.1397638 0 0 1 398.40384 843.33502 A 1.1397638 1.1397638 0 0 1 397.26517 842.1944 A 1.1397638 1.1397638 0 0 1 398.40384 841.05573 z " /></g><path
       id="path44"
       style="fill:#ffffff;stroke:none;stroke-width:0.755908;stroke-linecap:round;stroke-linejoin:round;paint-order:markers fill stroke"
       d="m 392.27801,697.49732 1.42098,1.42093 v 3.39912 l -1.42098,-1.42094 z"
       sodipodi:nodetypes="ccccc" /><path
       id="path46"
       style="fill:#ffffff;stroke:none;stroke-width:0.755908;stroke-linecap:round;stroke-linejoin:round;paint-order:markers fill stroke"
       d="m 392.27801,707.49732 1.42098,1.42093 v 3.39912 l -1.42098,-1.42094 z"
       sodipodi:nodetypes="ccccc" /><path
       id="path49"
       style="fill:#ffffff;stroke:none;stroke-width:0.755908;stroke-linecap:round;stroke-linejoin:round;paint-order:markers fill stroke"
       d="m 400.27801,710.49732 1.42098,1.42093 v 3.39912 l -1.42098,-1.42094 z"
       sodipodi:nodetypes="ccccc" /><path
       id="path51"
       style="fill:#ffffff;stroke:none;stroke-width:0.755908;stroke-linecap:round;stroke-linejoin:round;paint-order:markers fill stroke"
       d="m 400.27801,720.49732 1.42098,1.42093 v 3.39912 l -1.42098,-1.42094 z"
       sodipodi:nodetypes="ccccc" /><ellipse
       style="fill:#ffffff;fill-opacity:1;stroke:none;stroke-width:0.787025;stroke-linecap:round;stroke-linejoin:round;stroke-dasharray:none;stroke-opacity:1;paint-order:markers fill stroke"
       id="circle51"
       cx="430.25714"
       cy="545.10065"
       rx="2.3195665"
       ry="2.1397638"
       transform="matrix(0.92248437,0.38603444,0,1,0,0)" /><path
       style="color:#000000;fill:#ffffff;stroke-linecap:round;stroke-linejoin:round;-inkscape-stroke:none;paint-order:markers fill stroke"
       d="m 390.90039,750.26367 c -0.21319,0.0323 -0.41528,0.17556 -0.54883,0.36524 -0.13355,0.18967 -0.22636,0.42708 -0.30469,0.74218 a 0.37799079,0.37799079 0 0 0 -0.0117,0.0899 v 47.46093 l 0.002,-0.0215 c -0.0749,1.27353 0.37105,2.38659 1.27344,3.24414 l 10.53711,10.53711 c 0.38833,0.42119 0.96044,0.5694 1.42578,0.35547 0.46533,-0.21393 0.75516,-0.74813 0.74609,-1.41602 v -47.4414 a 0.37799079,0.37799079 0 0 0 -0.002,-0.0371 c -0.0334,-0.32375 -0.001,-0.71727 -0.15625,-1.1875 -0.15517,-0.47023 -0.49895,-0.97297 -1.19727,-1.54688 L 391.9043,750.64648 a 0.37799079,0.37799079 0 0 0 -0.0586,-0.0469 c -0.23774,-0.15824 -0.51892,-0.40055 -0.94531,-0.33594 z m 0.11328,0.74805 c -0.004,5.5e-4 0.17785,0.0681 0.39453,0.20703 l 10.74805,10.74805 a 0.37799079,0.37799079 0 0 0 0.0273,0.0254 c 0.62744,0.51566 0.85519,0.88662 0.95899,1.20117 0.10221,0.30975 0.0815,0.61051 0.12109,1.00976 v 47.42383 a 0.37799079,0.37799079 0 0 0 0,0.006 c 0.006,0.45939 -0.15871,0.65164 -0.30469,0.71875 -0.14597,0.0671 -0.33973,0.0515 -0.55468,-0.18164 a 0.37799079,0.37799079 0 0 0 -0.0117,-0.0117 l -10.55469,-10.55468 a 0.37799079,0.37799079 0 0 0 -0.008,-0.008 c -0.76265,-0.72475 -1.10265,-1.57063 -1.03906,-2.65234 a 0.37799079,0.37799079 0 0 0 0,-0.0215 v -47.39453 c 0.0624,-0.23757 0.13101,-0.39848 0.17773,-0.46484 0.0493,-0.07 0.0468,-0.0511 0.0449,-0.0508 z"
       id="path53" /><path
       style="color:#000000;fill:#ffffff;stroke-linecap:round;stroke-linejoin:round;-inkscape-stroke:none;paint-order:markers fill stroke"
       d="m 393.34375,728.64844 a 0.3779918,0.3779918 0 0 0 -0.23438,0.34961 v 11.81836 a 0.3779918,0.3779918 0 0 0 0.11133,0.26757 l 7,7 a 0.3779918,0.3779918 0 0 0 0.64649,-0.26757 v -11.81836 a 0.3779918,0.3779918 0 0 0 -0.11133,-0.26758 l -7,-7 a 0.3779918,0.3779918 0 0 0 -0.41211,-0.082 z m 0.52148,1.25976 6.2461,6.2461 v 10.75195 l -6.2461,-6.24609 z"
       id="path55" /><path
       style="color:#000000;fill:#ffffff;stroke-linecap:round;stroke-linejoin:round;-inkscape-stroke:none;paint-order:markers fill stroke"
       d="m 394.34375,788.14844 a 0.3779918,0.3779918 0 0 0 -0.23438,0.34961 v 11.81836 a 0.3779918,0.3779918 0 0 0 0.11133,0.26757 l 7,7 a 0.3779918,0.3779918 0 0 0 0.64649,-0.26757 v -11.81836 a 0.3779918,0.3779918 0 0 0 -0.11133,-0.26758 l -7,-7 a 0.3779918,0.3779918 0 0 0 -0.41211,-0.082 z m 0.52148,1.25976 6.2461,6.2461 v 10.75195 l -6.2461,-6.24609 z"
       id="path57" /><path
       style="color:#000000;fill:#ffffff;stroke-linecap:round;stroke-linejoin:round;-inkscape-stroke:none;paint-order:markers fill stroke"
       d="m 394.34375,845.14844 a 0.3779918,0.3779918 0 0 0 -0.23438,0.34961 v 11.81836 a 0.3779918,0.3779918 0 0 0 0.11133,0.26757 l 7,7 a 0.3779918,0.3779918 0 0 0 0.64649,-0.26757 v -11.81836 a 0.3779918,0.3779918 0 0 0 -0.11133,-0.26758 l -7,-7 a 0.3779918,0.3779918 0 0 0 -0.41211,-0.082 z m 0.52148,1.25976 6.2461,6.2461 v 10.75195 l -6.2461,-6.24609 z"
       id="path58" /><path
       id="path59"
       style="fill:#ffffff;stroke:none;stroke-width:0.755908;stroke-linecap:round;stroke-linejoin:round;paint-order:markers fill stroke"
       d="M 394.48782 772.49713 L 394.48782 784.31745 L 401.48782 791.31745 L 401.48782 779.49713 L 394.48782 772.49713 z M 398.90384 778.80573 A 1.8897638 1.8897638 0 0 1 400.79446 780.6944 A 1.8897638 1.8897638 0 0 1 398.90384 782.58502 A 1.8897638 1.8897638 0 0 1 397.01517 780.6944 A 1.8897638 1.8897638 0 0 1 398.90384 778.80573 z " /><path
       style="color:#000000;fill:#ffffff;stroke-linecap:round;stroke-linejoin:round;-inkscape-stroke:none;paint-order:markers fill stroke"
       d="m 392.34375,754.14844 a 0.3779918,0.3779918 0 0 0 -0.23438,0.34961 v 12.31836 a 0.3779918,0.3779918 0 0 0 0.11133,0.26757 l 9,9 a 0.3779918,0.3779918 0 0 0 0.64649,-0.26757 v -12.31836 a 0.3779918,0.3779918 0 0 0 -0.11133,-0.26758 l -9,-9 a 0.3779918,0.3779918 0 0 0 -0.41211,-0.082 z m 0.52148,1.25976 8.2461,8.2461 v 11.25195 l -8.2461,-8.24609 z"
       id="path60" /><g
       id="g60"
       style="fill:#ffffff"><path
         style="color:#000000;fill:#ffffff;stroke-linecap:round;stroke-linejoin:round;-inkscape-stroke:none;paint-order:markers fill stroke"
         d="m 429.37109,597.75586 c -2.07852,0 -3.80078,1.57314 -3.80078,3.54297 0,1.96982 1.72226,3.54492 3.80078,3.54492 2.07852,0 3.80079,-1.5751 3.80078,-3.54492 0,-1.96983 -1.72226,-3.54297 -3.80078,-3.54297 z m 0,0.78711 c 1.68572,0 3.01563,1.2456 3.01563,2.75586 0,1.51026 -1.32991,2.75781 -3.01563,2.75781 -1.68572,0 -3.01367,-1.24755 -3.01367,-2.75781 0,-1.51026 1.32795,-2.75586 3.01367,-2.75586 z"
         id="circle60"
         transform="matrix(0.92451154,0.38115406,0,1,0,0)" /><path
         style="color:#000000;fill:#ffffff;stroke-linecap:round;stroke-linejoin:round;-inkscape-stroke:none;paint-order:markers fill stroke"
         d="m 430.45312,599.47266 c -0.80686,0 -1.49804,0.6199 -1.49804,1.41406 0,0.79416 0.69118,1.41601 1.49804,1.41601 0.80687,0 1.49805,-0.62185 1.49805,-1.41601 0,-0.79416 -0.69118,-1.41406 -1.49805,-1.41406 z m 0,0.78515 c 0.41407,0 0.7129,0.29431 0.7129,0.62891 0,0.3346 -0.29883,0.6289 -0.7129,0.6289 -0.41406,0 -0.71093,-0.2943 -0.71093,-0.6289 0,-0.3346 0.29687,-0.62891 0.71093,-0.62891 z"
         id="ellipse60"
         transform="matrix(0.92451154,0.38115405,0,1,0,0)" /></g><g
       id="g62"
       transform="translate(0.00149589,58.121135)"
       style="fill:#ffffff"><path
         style="color:#000000;fill:#ffffff;stroke-linecap:round;stroke-linejoin:round;-inkscape-stroke:none;paint-order:markers fill stroke"
         d="m 429.37109,597.75586 c -2.07852,0 -3.80078,1.57314 -3.80078,3.54297 0,1.96982 1.72226,3.54492 3.80078,3.54492 2.07852,0 3.80079,-1.5751 3.80078,-3.54492 0,-1.96983 -1.72226,-3.54297 -3.80078,-3.54297 z m 0,0.78711 c 1.68572,0 3.01563,1.2456 3.01563,2.75586 0,1.51026 -1.32991,2.75781 -3.01563,2.75781 -1.68572,0 -3.01367,-1.24755 -3.01367,-2.75781 0,-1.51026 1.32795,-2.75586 3.01367,-2.75586 z"
         id="ellipse61"
         transform="matrix(0.92451154,0.38115406,0,1,0,0)" /><path
         style="color:#000000;fill:#ffffff;stroke-linecap:round;stroke-linejoin:round;-inkscape-stroke:none;paint-order:markers fill stroke"
         d="m 430.45312,599.47266 c -0.80686,0 -1.49804,0.6199 -1.49804,1.41406 0,0.79416 0.69118,1.41601 1.49804,1.41601 0.80687,0 1.49805,-0.62185 1.49805,-1.41601 0,-0.79416 -0.69118,-1.41406 -1.49805,-1.41406 z m 0,0.78515 c 0.41407,0 0.7129,0.29431 0.7129,0.62891 0,0.3346 -0.29883,0.6289 -0.7129,0.6289 -0.41406,0 -0.71093,-0.2943 -0.71093,-0.6289 0,-0.3346 0.29687,-0.62891 0.71093,-0.62891 z"
         id="ellipse62"
         transform="matrix(0.92451154,0.38115405,0,1,0,0)" /></g><path
       style="color:#000000;fill:#ffffff;stroke-linecap:round;stroke-linejoin:round;-inkscape-stroke:none;paint-order:markers fill stroke"
       d="m 392.34375,812.14844 a 0.3779918,0.3779918 0 0 0 -0.23438,0.34961 v 12.31836 a 0.3779918,0.3779918 0 0 0 0.11133,0.26757 l 9,9 a 0.3779918,0.3779918 0 0 0 0.64649,-0.26757 v -12.31836 a 0.3779918,0.3779918 0 0 0 -0.11133,-0.26758 l -9,-9 a 0.3779918,0.3779918 0 0 0 -0.41211,-0.082 z m 0.52148,1.25976 8.2461,8.2461 v 11.25195 l -8.2461,-8.24609 z"
       id="path62" /><path
       style="color:#000000;fill:#ffffff;stroke-linecap:round;stroke-linejoin:round;-inkscape-stroke:none;paint-order:markers fill stroke"
       d="m 429.37305,691.00586 c -0.80687,0 -1.49805,0.6199 -1.49805,1.41406 0,0.79416 0.69118,1.41602 1.49805,1.41602 0.80686,0 1.49804,-0.62186 1.49804,-1.41602 0,-0.79416 -0.69118,-1.41406 -1.49804,-1.41406 z m 0,0.78516 c 0.41406,0 0.71289,0.2943 0.71289,0.6289 0,0.3346 -0.29883,0.62891 -0.71289,0.62891 -0.41407,0 -0.71094,-0.29431 -0.71094,-0.62891 0,-0.3346 0.29687,-0.6289 0.71094,-0.6289 z"
       id="ellipse64"
       transform="matrix(0.92451154,0.38115405,0,1,0,0)" /><path
       style="color:#000000;fill:#ffffff;stroke-linecap:round;stroke-linejoin:round;-inkscape-stroke:none;paint-order:markers fill stroke"
       d="m 430.45508,632.09375 c -0.80686,0 -1.49805,0.6199 -1.49805,1.41406 0,0.79417 0.69119,1.41602 1.49805,1.41602 0.80686,0 1.49804,-0.62185 1.49804,-1.41602 0,-0.79416 -0.69118,-1.41406 -1.49804,-1.41406 z m 0,0.78516 c 0.41406,0 0.71289,0.2943 0.71289,0.6289 0,0.3346 -0.29883,0.62891 -0.71289,0.62891 -0.41407,0 -0.71289,-0.29431 -0.71289,-0.62891 0,-0.3346 0.29882,-0.6289 0.71289,-0.6289 z"
       id="ellipse65"
       transform="matrix(0.92451154,0.38115405,0,1,0,0)" /><path
       style="color:#000000;fill:#ffffff;stroke-linecap:round;stroke-linejoin:round;-inkscape-stroke:none"
       d="m 392.64844,827.78711 a 0.5,0.5 0 0 0 -0.50196,0.49805 l -0.12695,27.01953 a 0.5,0.5 0 0 0 0.49805,0.50195 0.5,0.5 0 0 0 0.50195,-0.49805 l 0.12695,-27.01953 a 0.5,0.5 0 0 0 -0.49804,-0.50195 z"
       id="path65" /><path
       style="color:#000000;fill:#ffffff;stroke-linecap:round;stroke-linejoin:round;-inkscape-stroke:none"
       d="m 392.64844,771.28711 a 0.5,0.5 0 0 0 -0.50196,0.49805 l -0.12695,27.01953 a 0.5,0.5 0 0 0 0.49805,0.50195 0.5,0.5 0 0 0 0.50195,-0.49805 l 0.12695,-27.01953 a 0.5,0.5 0 0 0 -0.49804,-0.50195 z"
       id="path66" /></g></svg>
