<?xml version="1.0" encoding="UTF-8" standalone="no"?>
<!-- Created with Inkscape (http://www.inkscape.org/) -->

<svg
   width="210mm"
   height="297mm"
   viewBox="0 0 210 297"
   version="1.1"
   id="svg1"
   xml:space="preserve"
   inkscape:version="1.3.2 (091e20e, 2023-11-25)"
   sodipodi:docname="MrAnderson.svg"
   xmlns:inkscape="http://www.inkscape.org/namespaces/inkscape"
   xmlns:sodipodi="http://sodipodi.sourceforge.net/DTD/sodipodi-0.dtd"
   xmlns:xlink="http://www.w3.org/1999/xlink"
   xmlns="http://www.w3.org/2000/svg"
   xmlns:svg="http://www.w3.org/2000/svg"><sodipodi:namedview
     id="namedview1"
     pagecolor="#ffffff"
     bordercolor="#666666"
     borderopacity="1.0"
     inkscape:showpageshadow="2"
     inkscape:pageopacity="0.0"
     inkscape:pagecheckerboard="0"
     inkscape:deskcolor="#d1d1d1"
     inkscape:document-units="mm"
     inkscape:zoom="0.37250059"
     inkscape:cx="687.24723"
     inkscape:cy="778.52225"
     inkscape:window-width="1280"
     inkscape:window-height="1027"
     inkscape:window-x="2720"
     inkscape:window-y="25"
     inkscape:window-maximized="0"
     inkscape:current-layer="layer1" /><defs
     id="defs1" /><g
     inkscape:label="Layer 1"
     inkscape:groupmode="layer"
     id="layer1"><image
       width="260.39786"
       height="303.07999"
       preserveAspectRatio="none"
       style="stroke-width:1.04757;image-rendering:optimizeQuality"
       xlink:href="AndyAndersonBoard.jpg"
       id="image1"
       x="119.04176"
       y="-29.175426" /><path
       style="fill:#808080;stroke:#ff0000;stroke-width:0.2;stroke-dasharray:none"
       d="m 14.493478,282.13832 c -0.690922,-0.19311 -1.556319,-0.61207 -1.962814,-0.8735 -1.947627,-1.25258 -3.4967496,-3.55364 -5.4348276,-6.0558 l -7.45633003,-9.80292 c -1.24252897,-1.63357 -2.32059397,-4.58076 -3.22482397,-10.14057 -1.177829,-7.24208 -1.231941,-7.63415 -1.761613,-12.76394 -0.533999,-5.1717 -0.739185,-7.09838 -0.860725,-8.08214 -0.06865,-0.55564 -0.299579,-3.05605 -0.51318,-5.55646 -0.213601,-2.50041 -0.464469,-5.39861 -0.557484,-6.44045 -0.716886,-8.02964 -0.399557,-18.78507 0.691989,-23.45401 1.814695,-7.76213 1.834388,-8.93799 0.869846,-51.93714 -0.07167,-3.19497 -0.305813,-13.65123 -0.520321,-23.23613 -0.214508,-9.58491 -0.485773,-20.43896 -0.602812,-24.120125 -0.117038,-3.68116 -0.22901,-8.9814 -0.248824,-11.778321 -0.01981,-2.79692 -0.143128,-7.74091 -0.274028,-10.98665 -0.503414,-12.48239 -0.196585,-27.30675 0.75729,-36.58819 0.135625,-1.31966 0.304454,-2.68352 0.375177,-3.0308 0.07072,-0.34728 0.241439,-1.59748 0.379369,-2.77823 0.351907,-3.01248 0.91675,-6.82183 1.385655,-9.34497 0.219432,-1.18075 0.558497,-3.11288 0.753477,-4.29363 1.090177,-6.60183 4.966752,-20.20533992 5.757892,-20.20533992 0.105002,0 0.190913,-0.10229 0.190913,-0.22731 0,-0.12502 0.397795,-0.6251 0.883989,-1.11129 0.486194,-0.48619028 0.883989,-0.83927028 0.883989,-0.78462028 0,0.0546 0.490988,-0.27542 1.091084,-0.73348 0.600097,-0.45807 1.480929,-0.98092 1.957404,-1.1619 0.476476,-0.18099 1.207287,-0.47543 1.624024,-0.65431 1.4911286,-0.64006 2.0388696,-0.84393 3.3308446,-1.23979 0.720664,-0.2208 1.489382,-0.40146 1.708262,-0.40146 0.218881,0 0.59532,-0.10517 0.836532,-0.2337 0.38517,-0.20524 2.225941,-0.65028 4.783385,-1.15648 9.685662,-1.91707 22.379145,-1.26768 31.425063,1.60769 1.30236,0.41398 2.65206,0.83207 2.99935,0.9291 4.81677,1.34576 10.60786,5.9182503 10.60786,8.3756703 0,0.18333 0.21707,0.81512 0.48238,1.40398 0.55382,1.22922 1.79074,4.9673599 1.79074,5.4118499 0,0.16412 0.13112,0.61835 0.29138,1.0094 0.16025,0.39105 0.31775,0.82466 0.34998,0.96357 0.0322,0.13891 0.41923,1.5596 0.85999,3.15708 0.44075,1.59749 0.92373,3.35914 1.07328,3.91479 0.14955,0.55564 0.36806,1.35123 0.48559,1.76796 1.16689,4.13773 2.78119,13.92369 3.25097,19.70766 0.13506,1.66284 0.30199,3.42113 0.37095,3.90733 0.60136,4.23942 0.60985,34.61495 0.0152,54.428111 -0.0792,2.639325 -0.25496,11.561245 -0.39055,19.826485 -0.13559,8.26525 -0.35777,21.05143 -0.49374,28.41375 -0.53742,29.099 -0.5788,40.44063 -0.15851,43.44147 0.59987,4.28303 0.67537,4.74398 0.91014,5.55646 0.26277,0.90936 0.91077,4.98797 1.26295,7.94923 0.3271,2.75035 0.32913,14.37425 0.003,18.59725 -0.13821,1.79101 -0.42608,5.69997 -0.63972,8.68657 -0.21364,2.9866 -0.49241,6.05529 -0.6195,6.8193 -0.12709,0.76401 -0.3625,2.29836 -0.52314,3.40965 -0.16064,1.11129 -0.51418,3.32757 -0.78566,4.92505 -0.27148,1.59748 -0.60333,3.58645 -0.73744,4.41992 -1.17842,7.32338 -2.17863,10.63489 -4.03334,13.3536 -3.16262,4.63593 -7.05036,8.76069 -9.96974,12.45705 -2.1876,2.76987 -3.46597,3.8623 -5.29765,4.5271 l -1.26284,0.45835 -17.427207,0.0496 c -14.223429,0.0405 -17.65815,-0.0149 -18.683431,-0.30147 z m 13.249346,-61.67307 c -0.01081,-0.52932 -0.489699,-0.93344 -0.771827,-0.65132 -0.160375,0.16038 -0.215228,0.41515 -0.121895,0.56617 0.19121,0.30938 0.899679,0.37688 0.893722,0.0851 z m 14.491593,-0.18943 c 0.09608,-0.25038 -0.009,-0.37885 -0.309736,-0.37885 -0.250313,0 -0.455115,0.17048 -0.455115,0.37885 0,0.20837 0.139381,0.37885 0.309736,0.37885 0.170355,0 0.375156,-0.17048 0.455115,-0.37885 z m -14.64558,-18.76513 c 0.06849,-0.11082 0.02984,-0.35469 -0.08589,-0.54194 -0.236778,-0.38311 -1.019098,-0.18553 -1.019098,0.25738 0,0.15814 0.176386,0.21983 0.39197,0.13711 0.224767,-0.0863 0.326147,-0.0439 0.237662,0.0993 -0.08487,0.13732 -0.04065,0.24967 0.09826,0.24967 0.138912,0 0.308604,-0.0907 0.377093,-0.20148 z m 14.743744,-0.24038 c 0.138095,-0.41474 -0.653262,-0.7108 -0.992688,-0.37138 -0.145254,0.14525 -0.183845,0.39395 -0.08576,0.55265 0.223157,0.36108 0.937866,0.24095 1.078446,-0.18127 z m -0.947204,0.063 c 0,-0.0694 0.05683,-0.12628 0.126284,-0.12628 0.06946,0 0.126284,0.0568 0.126284,0.12628 0,0.0695 -0.05683,0.12629 -0.126284,0.12629 -0.06946,0 -0.126284,-0.0568 -0.126284,-0.12629 z M 41.762993,67.348704 c 0.307009,-0.49675 -0.245404,-1.09705 -0.607757,-0.66044 -0.31954,0.38502 -0.186664,0.91101 0.230141,0.91101 0.122516,0 0.292443,-0.11276 0.377616,-0.25057 z m -0.377616,-0.38085 c 0,-0.0695 0.05683,-0.12628 0.126284,-0.12628 0.06946,0 0.126284,0.0568 0.126284,0.12628 0,0.0695 -0.05683,0.12628 -0.126284,0.12628 -0.06946,0 -0.126284,-0.0568 -0.126284,-0.12628 z m -14.077035,0.22788 c 0.245786,-0.24579 -0.09168,-0.8593 -0.472661,-0.8593 -0.193507,0 -0.35183,0.22731 -0.35183,0.50514 0,0.47548 0.491883,0.68676 0.824491,0.35416 z m 0.185782,-18.90291 c 0,-0.20016 -0.09067,-0.41998 -0.201486,-0.48846 -0.323108,-0.19969 -0.890353,0.26354 -0.699955,0.5716 0.250597,0.40548 0.901441,0.34545 0.901441,-0.0831 z m 14.252418,0.14 c 0.07612,-0.12317 -0.01755,-0.35338 -0.208166,-0.51158 -0.264513,-0.21953 -0.379341,-0.20225 -0.484954,0.073 -0.2159,0.56262 0.382459,0.94126 0.69312,0.43861 z"
       id="path1"
       sodipodi:nodetypes="cssssssssssssssssssssssssssssscsssssscsscscsssssscsssssssscscccssccsssssssscsssssssssssssssssssssssssssscssssscss" /></g></svg>
